solid quadruped
facet normal -3.28042566098401e-009 -0.991444861373814 0.130526192220027
  outer loop
    vertex 2.60696598245868 -8.27537789932153 29.5749999974999
    vertex 11.2069659854722 -8.36056336173226 28.9279523871869
    vertex 11.2069659855671 -8.27537792745493 29.5749999999432
  endloop
endfacet
facet normal -3.28042566098401e-009 -0.991444861373814 0.130526192220027
  outer loop
    vertex 11.2069659854722 -8.36056336173226 28.9279523871869
    vertex 2.60696598245868 -8.27537789932153 29.5749999974999
    vertex 2.01112357599291 -8.3605633316496 28.9279523845743
  endloop
endfacet
facet normal -3.20057067414593e-009 -0.991444861373808 -0.130526192220072
  outer loop
    vertex 11.2069659376338 -22.8105633617186 30.2220476125864
    vertex 2.6069659238517 -22.7253778987168 29.5749999925228
    vertex 11.2069659384681 -22.7253779274413 29.5749999998301
  endloop
endfacet
facet normal -3.20057067414593e-009 -0.991444861373808 -0.130526192220072
  outer loop
    vertex 2.6069659238517 -22.7253778987168 29.5749999925228
    vertex 11.2069659376338 -22.8105633617186 30.2220476125864
    vertex 3.20280832999085 -22.8105633349843 30.2220476057854
  endloop
endfacet
facet normal 1.0 -3.14282343146416e-009 7.3206696192849e-010
  outer loop
    vertex 11.4069659596184 -15.0003779228751 39.1
    vertex 11.4069659371864 -21.0003779228751 33.05
    vertex 11.4069659596184 -15.0003779228751 33.05
  endloop
endfacet
facet normal 1.0 -3.14282343146416e-009 7.3206696192849e-010
  outer loop
    vertex 11.4069659371864 -21.0003779228751 33.05
    vertex 11.4069659596184 -15.0003779228751 39.1
    vertex 11.4069659371864 -21.0003779228751 39.1
  endloop
endfacet
facet normal 1.0 -3.14282343146416e-009 7.3206696192849e-010
  outer loop
    vertex 11.4069659912101 -6.55037793334336 33.05
    vertex 11.4069659055947 -29.4503779333434 24.1
    vertex 11.4069659912101 -6.55037793334336 24.1
  endloop
endfacet
facet normal 1.0 -3.14282343146416e-009 7.3206696192849e-010
  outer loop
    vertex 11.4069659055947 -29.4503779333434 24.1
    vertex 11.4069659912101 -6.55037793334336 33.05
    vertex 11.4069659371864 -21.0003779228751 33.05
  endloop
endfacet
facet normal 1.0 -3.14282343146416e-009 7.3206696192849e-010
  outer loop
    vertex 11.4069659055947 -29.4503779333434 24.1
    vertex 11.4069659371864 -21.0003779228751 33.05
    vertex 11.4069659055947 -29.4503779333434 33.05
  endloop
endfacet
facet normal 1.0 -3.14282343146416e-009 7.3206696192849e-010
  outer loop
    vertex 11.4069659371864 -21.0003779228751 33.05
    vertex 11.4069659912101 -6.55037793334336 33.05
    vertex 11.4069659596184 -15.0003779228751 33.05
  endloop
endfacet
facet normal -7.08665424853419e-010 -0.130526192220036 0.991444861373812
  outer loop
    vertex 11.2069659801915 -10.1283303146987 27.1601854342205
    vertex 0.304807699128442 -10.7753778917904 27.0749999968459
    vertex 11.206965978099 -10.7753779274549 27.0749999999432
  endloop
endfacet
facet normal -7.08665424853419e-010 -0.130526192220036 0.991444861373812
  outer loop
    vertex 0.304807699128442 -10.7753778917904 27.0749999968459
    vertex 11.2069659801915 -10.1283303146987 27.1601854342205
    vertex 0.383251842485324 -10.1283302792907 27.1601854311455
  endloop
endfacet
facet normal -2.76064630584209e-009 -0.923879532511296 -0.382683432365069
  outer loop
    vertex 11.2069659362873 -23.0603144179802 30.8249999998301
    vertex 3.20280832999085 -22.8105633349843 30.2220476057854
    vertex 11.2069659376338 -22.8105633617186 30.2220476125864
  endloop
endfacet
facet normal -2.76064630584209e-009 -0.923879532511296 -0.382683432365069
  outer loop
    vertex 3.20280832999085 -22.8105633349843 30.2220476057854
    vertex 11.2069659362873 -23.0603144179802 30.8249999998301
    vertex 3.75804506019081 -23.0603143931003 30.8249999935008
  endloop
endfacet
facet normal -2.06318935457734e-009 -0.3826834323651 0.923879532511283
  outer loop
    vertex 11.2069659361327 -23.9753779274413 27.409936490369
    vertex 0.38325178272019 -24.5783302785331 27.1601854249107
    vertex 11.206965934331 -24.578330314685 27.1601854341074
  endloop
endfacet
facet normal -2.06318935457734e-009 -0.3826834323651 0.923879532511283
  outer loop
    vertex 0.38325178272019 -24.5783302785331 27.1601854249107
    vertex 11.2069659361327 -23.9753779274413 27.409936490369
    vertex 0.613238369337715 -23.9753778920576 27.4099364813677
  endloop
endfacet
facet normal -1.0 3.73866479647755e-009 -4.18421493773645e-023
  outer loop
    vertex -0.593034094405303 -29.4503778884794 24.1
    vertex -0.593034008789879 -6.55037788847939 26.1
    vertex -0.593034008789879 -6.55037788847939 24.1
  endloop
endfacet
facet normal -1.0 3.73866479647755e-009 -4.18421493773645e-023
  outer loop
    vertex -0.593034008789879 -6.55037788847939 26.1
    vertex -0.593034094405303 -29.4503778884794 24.1
    vertex -0.593034094405303 -29.4503778884794 26.1
  endloop
endfacet
facet normal 4.07343332976927e-025 -1.52292006567243e-033 -1.0
  outer loop
    vertex -0.593034094405303 -29.4503778884794 24.1
    vertex 11.4069659912101 -6.55037793334336 24.1
    vertex 11.4069659055947 -29.4503779333434 24.1
  endloop
endfacet
facet normal 4.07343332976927e-025 -1.52292006567243e-033 -1.0
  outer loop
    vertex 11.4069659912101 -6.55037793334336 24.1
    vertex -0.593034094405303 -29.4503778884794 24.1
    vertex -0.593034008789879 -6.55037788847939 24.1
  endloop
endfacet
facet normal -3.16709586072744e-009 -0.793353340291212 0.608761429008751
  outer loop
    vertex 1.45588678500822 -23.060314385411 28.3249999915448
    vertex 11.2069659375245 -23.4576109744749 27.8072330468637
    vertex 11.2069659384115 -23.0603144179802 28.3249999998301
  endloop
endfacet
facet normal -3.16709586072744e-009 -0.793353340291212 0.608761429008751
  outer loop
    vertex 11.2069659375245 -23.4576109744749 27.8072330468637
    vertex 1.45588678500822 -23.060314385411 28.3249999915448
    vertex 0.979094193367815 -23.4576109403133 27.8072330381733
  endloop
endfacet
facet normal -4.93178038325911e-010 -0.38268343236509 -0.923879532511287
  outer loop
    vertex 4.83068005112813 -24.5783302933879 31.9898145601349
    vertex 11.2069659324534 -23.9753779274413 31.7400635092912
    vertex 11.2069659302273 -24.578330314685 31.9898145655527
  endloop
endfacet
facet normal -4.93178038325911e-010 -0.38268343236509 -0.923879532511287
  outer loop
    vertex 11.2069659324534 -23.9753779274413 31.7400635092912
    vertex 4.83068005112813 -24.5783302933879 31.9898145601349
    vertex 4.60069346901908 -23.975377905376 31.7400635036779
  endloop
endfacet
facet normal 2.95957149740029e-009 1.0 7.18699701491235e-010
  outer loop
    vertex -0.593034008789879 -6.55037788847939 24.1
    vertex 11.4069659912101 -6.55037793334336 33.05
    vertex 11.4069659912101 -6.55037793334336 24.1
  endloop
endfacet
facet normal 2.95957149740029e-009 1.0 7.18699701491235e-010
  outer loop
    vertex 11.4069659912101 -6.55037793334336 33.05
    vertex -0.593034008789879 -6.55037788847939 24.1
    vertex 5.80696599121012 -6.55037791240684 33.05
  endloop
endfacet
facet normal 2.95957149740029e-009 1.0 7.18699701491235e-010
  outer loop
    vertex 5.80696599121012 -6.55037791240684 33.05
    vertex -0.593034008789879 -6.55037788847939 24.1
    vertex -0.593034008789879 -6.55037788847939 26.1
  endloop
endfacet
facet normal 7.08663619213509e-010 0.130526192220056 -0.99144486137381
  outer loop
    vertex 4.83068010373871 -11.4224255193524 31.9898145638543
    vertex 11.2069659766785 -10.7753779274549 32.0749999999432
    vertex 11.206965974586 -11.4224255402112 31.9898145656659
  endloop
endfacet
facet normal 7.08663619213509e-010 0.130526192220056 -0.99144486137381
  outer loop
    vertex 11.2069659766785 -10.7753779274549 32.0749999999432
    vertex 4.83068010373871 -11.4224255193524 31.9898145638543
    vertex 4.90912424709558 -10.7753779068528 32.074999998154
  endloop
endfacet
facet normal 1.51435541350562e-009 0.3826834323651 -0.923879532511283
  outer loop
    vertex 4.60069351724106 -12.0253779058436 31.7400635075275
    vertex 11.206965974586 -11.4224255402112 31.9898145656659
    vertex 11.2069659726845 -12.0253779274549 31.7400635094043
  endloop
endfacet
facet normal 1.51435541350562e-009 0.3826834323651 -0.923879532511283
  outer loop
    vertex 11.206965974586 -11.4224255402112 31.9898145656659
    vertex 4.60069351724106 -12.0253779058436 31.7400635075275
    vertex 4.83068010373871 -11.4224255193524 31.9898145638543
  endloop
endfacet
facet normal -1.45322670408977e-010 -0.130526192220038 -0.991444861373812
  outer loop
    vertex 4.90912424709558 -10.7753779068528 32.074999998154
    vertex 11.2069659788194 -10.1283303146987 31.9898145656659
    vertex 11.2069659766785 -10.7753779274549 32.0749999999432
  endloop
endfacet
facet normal -1.45322670408977e-010 -0.130526192220038 -0.991444861373812
  outer loop
    vertex 11.2069659788194 -10.1283303146987 31.9898145656659
    vertex 4.90912424709558 -10.7753779068528 32.074999998154
    vertex 4.83068010857693 -10.1283302938397 31.9898145638544
  endloop
endfacet
facet normal -3.20625930748994e-009 -0.991444861373812 -0.130526192220038
  outer loop
    vertex 11.2069659851046 -8.36056336173226 30.2220476126995
    vertex 2.60696598245868 -8.27537789932153 29.5749999974999
    vertex 11.2069659855671 -8.27537792745493 29.5749999999432
  endloop
endfacet
facet normal -3.20625930748994e-009 -0.991444861373812 -0.130526192220038
  outer loop
    vertex 2.60696598245868 -8.27537789932153 29.5749999974999
    vertex 11.2069659851046 -8.36056336173226 30.2220476126995
    vertex 3.2028083882875 -8.36056333554802 30.2220476104255
  endloop
endfacet
facet normal -2.21685136775626e-009 -0.608761429008725 0.793353340291232
  outer loop
    vertex 11.2069659836739 -9.00761097448859 27.8072330469768
    vertex 0.613238428982888 -9.52537789279949 27.4099364874723
    vertex 11.206965982093 -9.52537792745496 27.4099364904821
  endloop
endfacet
facet normal -2.21685136775626e-009 -0.608761429008725 0.793353340291232
  outer loop
    vertex 0.613238428982888 -9.52537789279949 27.4099364874723
    vertex 11.2069659836739 -9.00761097448859 27.8072330469768
    vertex 0.979094252822585 -9.00761094102988 27.8072330440711
  endloop
endfacet
facet normal -0.735614500577782 2.75021603564573e-009 0.677400403409756
  outer loop
    vertex -0.593034094405303 -29.4503778884794 26.1
    vertex 0.30480763932244 -25.2253778910274 27.0749999905667
    vertex -0.593034008789879 -6.55037788847939 26.1
  endloop
endfacet
facet normal -0.735614500577782 2.75021603564573e-009 0.677400403409756
  outer loop
    vertex 0.30480763932244 -25.2253778910274 27.0749999905667
    vertex -0.593034094405303 -29.4503778884794 26.1
    vertex 0.383251777882016 -25.8724255040459 27.1601854249107
  endloop
endfacet
facet normal -0.735614500577782 2.75021603564573e-009 0.677400403409756
  outer loop
    vertex 0.383251777882016 -25.8724255040459 27.1601854249107
    vertex -0.593034094405303 -29.4503778884794 26.1
    vertex 0.613238359990953 -26.4753778920575 27.4099364813676
  endloop
endfacet
facet normal -0.735614500577782 2.75021603564573e-009 0.677400403409756
  outer loop
    vertex 0.613238359990953 -26.4753778920575 27.4099364813676
    vertex -0.593034094405303 -29.4503778884794 26.1
    vertex 0.979094180149587 -26.9931448462459 27.8072330381732
  endloop
endfacet
facet normal -0.735614500577782 2.75021603564573e-009 0.677400403409756
  outer loop
    vertex 0.979094180149587 -26.9931448462459 27.8072330381732
    vertex -0.593034094405303 -29.4503778884794 26.1
    vertex 1.45588676881933 -27.3904414043332 28.3249999915448
  endloop
endfacet
facet normal -0.735614500577782 2.75021603564573e-009 0.677400403409756
  outer loop
    vertex 1.45588676881933 -27.3904414043332 28.3249999915448
    vertex -0.593034094405303 -29.4503778884794 26.1
    vertex 5.8069659055947 -29.4503779124069 33.05
  endloop
endfacet
facet normal -0.735614500577782 2.75021603564573e-009 0.677400403409756
  outer loop
    vertex 1.45588676881933 -27.3904414043332 28.3249999915448
    vertex 5.8069659055947 -29.4503779124069 33.05
    vertex 2.01112349901925 -27.6401924624493 28.9279523792602
  endloop
endfacet
facet normal -0.735614500577782 2.75021603564573e-009 0.677400403409756
  outer loop
    vertex 2.01112349901925 -27.6401924624493 28.9279523792602
    vertex 5.8069659055947 -29.4503779124069 33.05
    vertex 2.6069659051584 -27.7253778987168 29.5749999925228
  endloop
endfacet
facet normal -0.735614500577782 2.75021603564573e-009 0.677400403409756
  outer loop
    vertex 2.6069659051584 -27.7253778987168 29.5749999925228
    vertex 5.8069659055947 -29.4503779124069 33.05
    vertex 3.20280831193451 -27.6401924664296 30.2220476057854
  endloop
endfacet
facet normal -0.735614500577782 2.75021603564573e-009 0.677400403409756
  outer loop
    vertex 3.20280831193451 -27.6401924664296 30.2220476057854
    vertex 5.8069659055947 -29.4503779124069 33.05
    vertex 3.75804504400192 -27.3904414120226 30.8249999935009
  endloop
endfacet
facet normal -0.735614500577782 2.75021603564573e-009 0.677400403409756
  outer loop
    vertex 3.75804504400192 -27.3904414120226 30.8249999935009
    vertex 5.8069659055947 -29.4503779124069 33.05
    vertex 4.2348376356424 -26.9931448571202 31.3427669468724
  endloop
endfacet
facet normal -0.735614500577782 2.75021603564573e-009 0.677400403409756
  outer loop
    vertex 4.2348376356424 -26.9931448571202 31.3427669468724
    vertex 5.8069659055947 -29.4503779124069 33.05
    vertex 4.60069345967251 -26.4753779053758 31.7400635036779
  endloop
endfacet
facet normal -0.735614500577782 2.75021603564573e-009 0.677400403409756
  outer loop
    vertex 4.60069345967251 -26.4753779053758 31.7400635036779
    vertex 5.8069659055947 -29.4503779124069 33.05
    vertex 4.83068004628992 -25.8724255189004 31.9898145601349
  endloop
endfacet
facet normal -0.735614500577782 2.75021603564573e-009 0.677400403409756
  outer loop
    vertex 4.83068004628992 -25.8724255189004 31.9898145601349
    vertex 5.8069659055947 -29.4503779124069 33.05
    vertex 4.90912418968767 -25.2253779064062 32.0749999944789
  endloop
endfacet
facet normal -0.735614500577782 2.75021603564573e-009 0.677400403409756
  outer loop
    vertex 4.90912418968767 -25.2253779064062 32.0749999944789
    vertex 5.8069659055947 -29.4503779124069 33.05
    vertex 4.90912424709558 -10.7753779068528 32.074999998154
  endloop
endfacet
facet normal -0.735614500577782 2.75021603564573e-009 0.677400403409756
  outer loop
    vertex -0.593034008789879 -6.55037788847939 26.1
    vertex 1.45588684421465 -8.61031438609485 28.3249999971729
    vertex 5.80696599121012 -6.55037791240684 33.05
  endloop
endfacet
facet normal -0.735614500577782 2.75021603564573e-009 0.677400403409756
  outer loop
    vertex 1.45588684421465 -8.61031438609485 28.3249999971729
    vertex -0.593034008789879 -6.55037788847939 26.1
    vertex 0.979094252822585 -9.00761094102988 27.8072330440711
  endloop
endfacet
facet normal -0.735614500577782 2.75021603564573e-009 0.677400403409756
  outer loop
    vertex 0.979094252822585 -9.00761094102988 27.8072330440711
    vertex -0.593034008789879 -6.55037788847939 26.1
    vertex 0.613238428982888 -9.52537789279949 27.4099364874723
  endloop
endfacet
facet normal -0.735614500577782 2.75021603564573e-009 0.677400403409756
  outer loop
    vertex 0.613238428982888 -9.52537789279949 27.4099364874723
    vertex -0.593034008789879 -6.55037788847939 26.1
    vertex 0.383251842485324 -10.1283302792907 27.1601854311455
  endloop
endfacet
facet normal -0.735614500577782 2.75021603564573e-009 0.677400403409756
  outer loop
    vertex 0.383251842485324 -10.1283302792907 27.1601854311455
    vertex -0.593034008789879 -6.55037788847939 26.1
    vertex 0.304807699128442 -10.7753778917904 27.0749999968459
  endloop
endfacet
facet normal -0.735614500577782 2.75021603564573e-009 0.677400403409756
  outer loop
    vertex 0.304807699128442 -10.7753778917904 27.0749999968459
    vertex -0.593034008789879 -6.55037788847939 26.1
    vertex 0.30480763932244 -25.2253778910274 27.0749999905667
  endloop
endfacet
facet normal -0.735614500577782 2.75021603564573e-009 0.677400403409756
  outer loop
    vertex 5.80696599121012 -6.55037791240684 33.05
    vertex 1.45588684421465 -8.61031438609485 28.3249999971729
    vertex 2.01112357599291 -8.3605633316496 28.9279523845743
  endloop
endfacet
facet normal -0.735614500577782 2.75021603564573e-009 0.677400403409756
  outer loop
    vertex 5.80696599121012 -6.55037791240684 33.05
    vertex 2.01112357599291 -8.3605633316496 28.9279523845743
    vertex 2.60696598245868 -8.27537789932153 29.5749999974999
  endloop
endfacet
facet normal -0.735614500577782 2.75021603564573e-009 0.677400403409756
  outer loop
    vertex 5.80696599121012 -6.55037791240684 33.05
    vertex 2.60696598245868 -8.27537789932153 29.5749999974999
    vertex 3.2028083882875 -8.36056333554802 30.2220476104255
  endloop
endfacet
facet normal -0.735614500577782 2.75021603564573e-009 0.677400403409756
  outer loop
    vertex 5.80696599121012 -6.55037791240684 33.05
    vertex 3.2028083882875 -8.36056333554802 30.2220476104255
    vertex 3.75804511819826 -8.61031439362602 30.8249999978269
  endloop
endfacet
facet normal -0.735614500577782 2.75021603564573e-009 0.677400403409756
  outer loop
    vertex 5.80696599121012 -6.55037791240684 33.05
    vertex 3.75804511819826 -8.61031439362602 30.8249999978269
    vertex 4.23483770661964 -9.00761095168051 31.3427669509289
  endloop
endfacet
facet normal -0.735614500577782 2.75021603564573e-009 0.677400403409756
  outer loop
    vertex 5.80696599121012 -6.55037791240684 33.05
    vertex 4.23483770661964 -9.00761095168051 31.3427669509289
    vertex 4.60069352658769 -9.52537790584376 31.7400635075275
  endloop
endfacet
facet normal -0.735614500577782 2.75021603564573e-009 0.677400403409756
  outer loop
    vertex 5.80696599121012 -6.55037791240684 33.05
    vertex 4.60069352658769 -9.52537790584376 31.7400635075275
    vertex 4.83068010857693 -10.1283302938397 31.9898145638544
  endloop
endfacet
facet normal -0.735614500577782 2.75021603564573e-009 0.677400403409756
  outer loop
    vertex 5.80696599121012 -6.55037791240684 33.05
    vertex 4.83068010857693 -10.1283302938397 31.9898145638544
    vertex 4.90912424709558 -10.7753779068528 32.074999998154
  endloop
endfacet
facet normal -0.735614500577782 2.75021603564573e-009 0.677400403409756
  outer loop
    vertex 5.80696599121012 -6.55037791240684 33.05
    vertex 4.90912424709558 -10.7753779068528 32.074999998154
    vertex 5.8069659055947 -29.4503779124069 33.05
  endloop
endfacet
facet normal -0.735614500577782 2.75021603564573e-009 0.677400403409756
  outer loop
    vertex 0.38325178272019 -24.5783302785331 27.1601854249107
    vertex 0.304807699128442 -10.7753778917904 27.0749999968459
    vertex 0.30480763932244 -25.2253778910274 27.0749999905667
  endloop
endfacet
facet normal -0.735614500577782 2.75021603564573e-009 0.677400403409756
  outer loop
    vertex 0.304807699128442 -10.7753778917904 27.0749999968459
    vertex 0.38325178272019 -24.5783302785331 27.1601854249107
    vertex 0.383251837647106 -11.4224255048032 27.1601854311455
  endloop
endfacet
facet normal -0.735614500577782 2.75021603564573e-009 0.677400403409756
  outer loop
    vertex 0.383251837647106 -11.4224255048032 27.1601854311455
    vertex 0.38325178272019 -24.5783302785331 27.1601854249107
    vertex 0.613238369337715 -23.9753778920576 27.4099364813677
  endloop
endfacet
facet normal -0.735614500577782 2.75021603564573e-009 0.677400403409756
  outer loop
    vertex 0.383251837647106 -11.4224255048032 27.1601854311455
    vertex 0.613238369337715 -23.9753778920576 27.4099364813677
    vertex 0.613238419636365 -12.0253778927993 27.4099364874724
  endloop
endfacet
facet normal -0.735614500577782 2.75021603564573e-009 0.677400403409756
  outer loop
    vertex 0.613238419636365 -12.0253778927993 27.4099364874724
    vertex 0.613238369337715 -23.9753778920576 27.4099364813677
    vertex 0.979094193367815 -23.4576109403133 27.8072330381733
  endloop
endfacet
facet normal -0.735614500577782 2.75021603564573e-009 0.677400403409756
  outer loop
    vertex 0.613238419636365 -12.0253778927993 27.4099364874724
    vertex 0.979094193367815 -23.4576109403133 27.8072330381733
    vertex 0.979094239604482 -12.5431448469626 27.8072330440712
  endloop
endfacet
facet normal -0.735614500577782 2.75021603564573e-009 0.677400403409756
  outer loop
    vertex 0.979094239604482 -12.5431448469626 27.8072330440712
    vertex 0.979094193367815 -23.4576109403133 27.8072330381733
    vertex 1.45588678500822 -23.060314385411 28.3249999915448
  endloop
endfacet
facet normal -0.735614500577782 2.75021603564573e-009 0.677400403409756
  outer loop
    vertex 0.979094239604482 -12.5431448469626 27.8072330440712
    vertex 1.45588678500822 -23.060314385411 28.3249999915448
    vertex 1.45588682802583 -12.9404414050171 28.3249999971729
  endloop
endfacet
facet normal -0.735614500577782 2.75021603564573e-009 0.677400403409756
  outer loop
    vertex 1.45588682802583 -12.9404414050171 28.3249999971729
    vertex 1.45588678500822 -23.060314385411 28.3249999915448
    vertex 2.01112351707561 -22.8105633310039 28.9279523792602
  endloop
endfacet
facet normal -0.735614500577782 2.75021603564573e-009 0.677400403409756
  outer loop
    vertex 1.45588682802583 -12.9404414050171 28.3249999971729
    vertex 2.01112351707561 -22.8105633310039 28.9279523792602
    vertex 2.01112355793656 -13.190192463095 28.9279523845744
  endloop
endfacet
facet normal -0.735614500577782 2.75021603564573e-009 0.677400403409756
  outer loop
    vertex 2.01112355793656 -13.190192463095 28.9279523845744
    vertex 2.01112351707561 -22.8105633310039 28.9279523792602
    vertex 2.6069659238517 -22.7253778987168 29.5749999925228
  endloop
endfacet
facet normal -0.735614500577782 2.75021603564573e-009 0.677400403409756
  outer loop
    vertex 2.01112355793656 -13.190192463095 28.9279523845744
    vertex 2.6069659238517 -22.7253778987168 29.5749999925228
    vertex 2.60696596376537 -13.2753778993215 29.5749999974999
  endloop
endfacet
facet normal -0.735614500577782 2.75021603564573e-009 0.677400403409756
  outer loop
    vertex 2.60696596376537 -13.2753778993215 29.5749999974999
    vertex 2.6069659238517 -22.7253778987168 29.5749999925228
    vertex 3.20280832999085 -22.8105633349843 30.2220476057854
  endloop
endfacet
facet normal -0.735614500577782 2.75021603564573e-009 0.677400403409756
  outer loop
    vertex 2.60696596376537 -13.2753778993215 29.5749999974999
    vertex 3.20280832999085 -22.8105633349843 30.2220476057854
    vertex 3.20280837023114 -13.1901924669934 30.2220476104255
  endloop
endfacet
facet normal -0.735614500577782 2.75021603564573e-009 0.677400403409756
  outer loop
    vertex 3.20280837023114 -13.1901924669934 30.2220476104255
    vertex 3.20280832999085 -22.8105633349843 30.2220476057854
    vertex 3.75804506019081 -23.0603143931003 30.8249999935008
  endloop
endfacet
facet normal -0.735614500577782 2.75021603564573e-009 0.677400403409756
  outer loop
    vertex 3.20280837023114 -13.1901924669934 30.2220476104255
    vertex 3.75804506019081 -23.0603143931003 30.8249999935008
    vertex 3.75804510200932 -12.9404414125481 30.8249999978269
  endloop
endfacet
facet normal -0.735614500577782 2.75021603564573e-009 0.677400403409756
  outer loop
    vertex 3.75804510200932 -12.9404414125481 30.8249999978269
    vertex 3.75804506019081 -23.0603143931003 30.8249999935008
    vertex 4.23483764886051 -23.4576109511876 31.3427669468723
  endloop
endfacet
facet normal -0.735614500577782 2.75021603564573e-009 0.677400403409756
  outer loop
    vertex 3.75804510200932 -12.9404414125481 30.8249999978269
    vertex 4.23483764886051 -23.4576109511876 31.3427669468723
    vertex 4.23483769340138 -12.5431448576131 31.3427669509287
  endloop
endfacet
facet normal -0.735614500577782 2.75021603564573e-009 0.677400403409756
  outer loop
    vertex 4.23483769340138 -12.5431448576131 31.3427669509287
    vertex 4.23483764886051 -23.4576109511876 31.3427669468723
    vertex 4.60069346901908 -23.975377905376 31.7400635036779
  endloop
endfacet
facet normal -0.735614500577782 2.75021603564573e-009 0.677400403409756
  outer loop
    vertex 4.23483769340138 -12.5431448576131 31.3427669509287
    vertex 4.60069346901908 -23.975377905376 31.7400635036779
    vertex 4.60069351724106 -12.0253779058436 31.7400635075275
  endloop
endfacet
facet normal -0.735614500577782 2.75021603564573e-009 0.677400403409756
  outer loop
    vertex 4.60069351724106 -12.0253779058436 31.7400635075275
    vertex 4.60069346901908 -23.975377905376 31.7400635036779
    vertex 4.83068005112813 -24.5783302933879 31.9898145601349
  endloop
endfacet
facet normal -0.735614500577782 2.75021603564573e-009 0.677400403409756
  outer loop
    vertex 4.60069351724106 -12.0253779058436 31.7400635075275
    vertex 4.83068005112813 -24.5783302933879 31.9898145601349
    vertex 4.83068010373871 -11.4224255193524 31.9898145638543
  endloop
endfacet
facet normal -0.735614500577782 2.75021603564573e-009 0.677400403409756
  outer loop
    vertex 4.83068010373871 -11.4224255193524 31.9898145638543
    vertex 4.83068005112813 -24.5783302933879 31.9898145601349
    vertex 4.90912418968767 -25.2253779064062 32.0749999944789
  endloop
endfacet
facet normal -0.735614500577782 2.75021603564573e-009 0.677400403409756
  outer loop
    vertex 4.83068010373871 -11.4224255193524 31.9898145638543
    vertex 4.90912418968767 -25.2253779064062 32.0749999944789
    vertex 4.90912424709558 -10.7753779068528 32.074999998154
  endloop
endfacet
facet normal -1.0 3.27133077672553e-009 -2.84099565314628e-010
  outer loop
    vertex 11.2069659759581 -11.4224255402112 27.1601854342205
    vertex 11.2069659801915 -10.1283303146987 27.1601854342205
    vertex 11.206965978099 -10.7753779274549 27.0749999999432
  endloop
endfacet
facet normal -1.0 3.27133077672553e-009 -2.84099565314628e-010
  outer loop
    vertex 11.2069659801915 -10.1283303146987 27.1601854342205
    vertex 11.2069659759581 -11.4224255402112 27.1601854342205
    vertex 11.2069659739147 -12.0253779274549 27.4099364904821
  endloop
endfacet
facet normal -1.0 3.27133077672553e-009 -2.84099565314628e-010
  outer loop
    vertex 11.2069659801915 -10.1283303146987 27.1601854342205
    vertex 11.2069659739147 -12.0253779274549 27.4099364904821
    vertex 11.206965982093 -9.52537792745496 27.4099364904821
  endloop
endfacet
facet normal -1.0 3.27133077672553e-009 -2.84099565314628e-010
  outer loop
    vertex 11.206965982093 -9.52537792745496 27.4099364904821
    vertex 11.2069659739147 -12.0253779274549 27.4099364904821
    vertex 11.206965972108 -12.5431448804213 27.8072330469768
  endloop
endfacet
facet normal -1.0 3.27133077672553e-009 -2.84099565314628e-010
  outer loop
    vertex 11.206965982093 -9.52537792745496 27.4099364904821
    vertex 11.206965972108 -12.5431448804213 27.8072330469768
    vertex 11.2069659836739 -9.00761097448859 27.8072330469768
  endloop
endfacet
facet normal -1.0 3.27133077672553e-009 -2.84099565314628e-010
  outer loop
    vertex 11.2069659836739 -9.00761097448859 27.8072330469768
    vertex 11.206965972108 -12.5431448804213 27.8072330469768
    vertex 11.2069659706612 -12.9404414369161 28.3249999999432
  endloop
endfacet
facet normal -1.0 3.27133077672553e-009 -2.84099565314628e-010
  outer loop
    vertex 11.2069659836739 -9.00761097448859 27.8072330469768
    vertex 11.2069659706612 -12.9404414369161 28.3249999999432
    vertex 11.2069659848265 -8.61031441799384 28.3249999999432
  endloop
endfacet
facet normal -1.0 3.27133077672553e-009 -2.84099565314628e-010
  outer loop
    vertex 11.2069659848265 -8.61031441799384 28.3249999999432
    vertex 11.2069659706612 -12.9404414369161 28.3249999999432
    vertex 11.2069659696729 -13.1901924931776 28.9279523871869
  endloop
endfacet
facet normal -1.0 3.27133077672553e-009 -2.84099565314628e-010
  outer loop
    vertex 11.2069659848265 -8.61031441799384 28.3249999999432
    vertex 11.2069659696729 -13.1901924931776 28.9279523871869
    vertex 11.2069659854722 -8.36056336173226 28.9279523871869
  endloop
endfacet
facet normal -1.0 3.27133077672553e-009 -2.84099565314628e-010
  outer loop
    vertex 11.2069659854722 -8.36056336173226 28.9279523871869
    vertex 11.2069659696729 -13.1901924931776 28.9279523871869
    vertex 11.2069659692104 -13.275377927455 29.5749999999432
  endloop
endfacet
facet normal -1.0 3.27133077672553e-009 -2.84099565314628e-010
  outer loop
    vertex 11.2069659854722 -8.36056336173226 28.9279523871869
    vertex 11.2069659692104 -13.275377927455 29.5749999999432
    vertex 11.2069659855671 -8.27537792745493 29.5749999999432
  endloop
endfacet
facet normal -1.0 3.27133077672553e-009 -2.84099565314628e-010
  outer loop
    vertex 11.2069659855671 -8.27537792745493 29.5749999999432
    vertex 11.2069659692104 -13.275377927455 29.5749999999432
    vertex 11.2069659693053 -13.1901924931776 30.2220476126995
  endloop
endfacet
facet normal -1.0 3.27133077672553e-009 -2.84099565314628e-010
  outer loop
    vertex 11.2069659855671 -8.27537792745493 29.5749999999432
    vertex 11.2069659693053 -13.1901924931776 30.2220476126995
    vertex 11.2069659851046 -8.36056336173226 30.2220476126995
  endloop
endfacet
facet normal -1.0 3.27133077672553e-009 -2.84099565314628e-010
  outer loop
    vertex 11.2069659851046 -8.36056336173226 30.2220476126995
    vertex 11.2069659693053 -13.1901924931776 30.2220476126995
    vertex 11.206965969951 -12.9404414369161 30.8249999999432
  endloop
endfacet
facet normal -1.0 3.27133077672553e-009 -2.84099565314628e-010
  outer loop
    vertex 11.2069659851046 -8.36056336173226 30.2220476126995
    vertex 11.206965969951 -12.9404414369161 30.8249999999432
    vertex 11.2069659841163 -8.61031441799384 30.8249999999432
  endloop
endfacet
facet normal -1.0 3.27133077672553e-009 -2.84099565314628e-010
  outer loop
    vertex 11.2069659841163 -8.61031441799384 30.8249999999432
    vertex 11.206965969951 -12.9404414369161 30.8249999999432
    vertex 11.2069659711036 -12.5431448804213 31.3427669529096
  endloop
endfacet
facet normal -1.0 3.27133077672553e-009 -2.84099565314628e-010
  outer loop
    vertex 11.2069659841163 -8.61031441799384 30.8249999999432
    vertex 11.2069659711036 -12.5431448804213 31.3427669529096
    vertex 11.2069659826695 -9.00761097448859 31.3427669529096
  endloop
endfacet
facet normal -1.0 3.27133077672553e-009 -2.84099565314628e-010
  outer loop
    vertex 11.2069659826695 -9.00761097448859 31.3427669529096
    vertex 11.2069659711036 -12.5431448804213 31.3427669529096
    vertex 11.2069659726845 -12.0253779274549 31.7400635094043
  endloop
endfacet
facet normal -1.0 3.27133077672553e-009 -2.84099565314628e-010
  outer loop
    vertex 11.2069659826695 -9.00761097448859 31.3427669529096
    vertex 11.2069659726845 -12.0253779274549 31.7400635094043
    vertex 11.2069659808628 -9.52537792745496 31.7400635094043
  endloop
endfacet
facet normal -1.0 3.27133077672553e-009 -2.84099565314628e-010
  outer loop
    vertex 11.2069659808628 -9.52537792745496 31.7400635094043
    vertex 11.2069659726845 -12.0253779274549 31.7400635094043
    vertex 11.206965974586 -11.4224255402112 31.9898145656659
  endloop
endfacet
facet normal -1.0 3.27133077672553e-009 -2.84099565314628e-010
  outer loop
    vertex 11.2069659808628 -9.52537792745496 31.7400635094043
    vertex 11.206965974586 -11.4224255402112 31.9898145656659
    vertex 11.2069659788194 -10.1283303146987 31.9898145656659
  endloop
endfacet
facet normal -1.0 3.27133077672553e-009 -2.84099565314628e-010
  outer loop
    vertex 11.2069659788194 -10.1283303146987 31.9898145656659
    vertex 11.206965974586 -11.4224255402112 31.9898145656659
    vertex 11.2069659766785 -10.7753779274549 32.0749999999432
  endloop
endfacet
facet normal -3.13103670042529e-009 -0.923879532511279 0.382683432365109
  outer loop
    vertex 2.01112357599291 -8.3605633316496 28.9279523845743
    vertex 11.2069659848265 -8.61031441799384 28.3249999999432
    vertex 11.2069659854722 -8.36056336173226 28.9279523871869
  endloop
endfacet
facet normal -3.13103670042529e-009 -0.923879532511279 0.382683432365109
  outer loop
    vertex 11.2069659848265 -8.61031441799384 28.3249999999432
    vertex 2.01112357599291 -8.3605633316496 28.9279523845743
    vertex 1.45588684421465 -8.61031438609485 28.3249999971729
  endloop
endfacet
facet normal -1.5143612224892e-009 -0.382683432365088 0.923879532511288
  outer loop
    vertex 11.206965982093 -9.52537792745496 27.4099364904821
    vertex 0.383251842485324 -10.1283302792907 27.1601854311455
    vertex 11.2069659801915 -10.1283303146987 27.1601854342205
  endloop
endfacet
facet normal -1.5143612224892e-009 -0.382683432365088 0.923879532511288
  outer loop
    vertex 0.383251842485324 -10.1283302792907 27.1601854311455
    vertex 11.206965982093 -9.52537792745496 27.4099364904821
    vertex 0.613238428982888 -9.52537789279949 27.4099364874723
  endloop
endfacet
facet normal 3.20057665480614e-009 0.991444861373811 0.130526192220047
  outer loop
    vertex 2.01112349901925 -27.6401924624493 28.9279523792602
    vertex 11.2069659217679 -27.7253779274413 29.5749999998301
    vertex 11.2069659226022 -27.640192493164 28.9279523870738
  endloop
endfacet
facet normal 3.20057665480614e-009 0.991444861373811 0.130526192220047
  outer loop
    vertex 11.2069659217679 -27.7253779274413 29.5749999998301
    vertex 2.01112349901925 -27.6401924624493 28.9279523792602
    vertex 2.6069659051584 -27.7253778987168 29.5749999925228
  endloop
endfacet
facet normal -9.89413569635439e-010 -0.382683432365066 -0.923879532511296
  outer loop
    vertex 4.83068010857693 -10.1283302938397 31.9898145638544
    vertex 11.2069659808628 -9.52537792745496 31.7400635094043
    vertex 11.2069659788194 -10.1283303146987 31.9898145656659
  endloop
endfacet
facet normal -9.89413569635439e-010 -0.382683432365066 -0.923879532511296
  outer loop
    vertex 11.2069659808628 -9.52537792745496 31.7400635094043
    vertex 4.83068010857693 -10.1283302938397 31.9898145638544
    vertex 4.60069352658769 -9.52537790584376 31.7400635075275
  endloop
endfacet
facet normal 1.45324725814763e-010 0.13052619222005 0.991444861373811
  outer loop
    vertex 11.206965978099 -10.7753779274549 27.0749999999432
    vertex 0.383251837647106 -11.4224255048032 27.1601854311455
    vertex 11.2069659759581 -11.4224255402112 27.1601854342205
  endloop
endfacet
facet normal 1.45324725814763e-010 0.13052619222005 0.991444861373811
  outer loop
    vertex 0.383251837647106 -11.4224255048032 27.1601854311455
    vertex 11.206965978099 -10.7753779274549 27.0749999999432
    vertex 0.304807699128442 -10.7753778917904 27.0749999968459
  endloop
endfacet
facet normal -1.27838008703618e-009 -0.130526192220065 0.991444861373809
  outer loop
    vertex 11.206965934331 -24.578330314685 27.1601854341074
    vertex 0.30480763932244 -25.2253778910274 27.0749999905667
    vertex 11.2069659322422 -25.2253779274413 27.0749999998301
  endloop
endfacet
facet normal -1.27838008703618e-009 -0.130526192220065 0.991444861373809
  outer loop
    vertex 0.30480763932244 -25.2253778910274 27.0749999905667
    vertex 11.206965934331 -24.578330314685 27.1601854341074
    vertex 0.38325178272019 -24.5783302785331 27.1601854249107
  endloop
endfacet
facet normal -4.06449619499817e-010 0.130526192220052 0.99144486137381
  outer loop
    vertex 11.2069659322422 -25.2253779274413 27.0749999998301
    vertex 0.383251777882016 -25.8724255040459 27.1601854249107
    vertex 11.2069659300086 -25.8724255401976 27.1601854341074
  endloop
endfacet
facet normal -4.06449619499817e-010 0.130526192220052 0.99144486137381
  outer loop
    vertex 0.383251777882016 -25.8724255040459 27.1601854249107
    vertex 11.2069659322422 -25.2253779274413 27.0749999998301
    vertex 0.30480763932244 -25.2253778910274 27.0749999905667
  endloop
endfacet
facet normal 4.93176394967513e-010 0.382683432365092 0.923879532511286
  outer loop
    vertex 11.2069659300086 -25.8724255401976 27.1601854341074
    vertex 0.613238359990953 -26.4753778920575 27.4099364813676
    vertex 11.2069659277825 -26.4753779274413 27.409936490369
  endloop
endfacet
facet normal 4.93176394967513e-010 0.382683432365092 0.923879532511286
  outer loop
    vertex 0.613238359990953 -26.4753778920575 27.4099364813676
    vertex 11.2069659300086 -25.8724255401976 27.1601854341074
    vertex 0.383251777882016 -25.8724255040459 27.1601854249107
  endloop
endfacet
facet normal -1.0 3.3400572686934e-009 -8.496847416164e-010
  outer loop
    vertex 11.2069659300086 -25.8724255401976 27.1601854341074
    vertex 11.206965934331 -24.578330314685 27.1601854341074
    vertex 11.2069659322422 -25.2253779274413 27.0749999998301
  endloop
endfacet
facet normal -1.0 3.3400572686934e-009 -8.496847416164e-010
  outer loop
    vertex 11.206965934331 -24.578330314685 27.1601854341074
    vertex 11.2069659300086 -25.8724255401976 27.1601854341074
    vertex 11.2069659277825 -26.4753779274413 27.409936490369
  endloop
endfacet
facet normal -1.0 3.3400572686934e-009 -8.496847416164e-010
  outer loop
    vertex 11.206965934331 -24.578330314685 27.1601854341074
    vertex 11.2069659277825 -26.4753779274413 27.409936490369
    vertex 11.2069659361327 -23.9753779274413 27.409936490369
  endloop
endfacet
facet normal -1.0 3.3400572686934e-009 -8.496847416164e-010
  outer loop
    vertex 11.2069659361327 -23.9753779274413 27.409936490369
    vertex 11.2069659277825 -26.4753779274413 27.409936490369
    vertex 11.2069659257156 -26.9931448804076 27.8072330468637
  endloop
endfacet
facet normal -1.0 3.3400572686934e-009 -8.496847416164e-010
  outer loop
    vertex 11.2069659361327 -23.9753779274413 27.409936490369
    vertex 11.2069659257156 -26.9931448804076 27.8072330468637
    vertex 11.2069659375245 -23.4576109744749 27.8072330468637
  endloop
endfacet
facet normal -1.0 3.3400572686934e-009 -8.496847416164e-010
  outer loop
    vertex 11.2069659375245 -23.4576109744749 27.8072330468637
    vertex 11.2069659257156 -26.9931448804076 27.8072330468637
    vertex 11.2069659239487 -27.3904414369024 28.3249999998301
  endloop
endfacet
facet normal -1.0 3.3400572686934e-009 -8.496847416164e-010
  outer loop
    vertex 11.2069659375245 -23.4576109744749 27.8072330468637
    vertex 11.2069659239487 -27.3904414369024 28.3249999998301
    vertex 11.2069659384115 -23.0603144179802 28.3249999998301
  endloop
endfacet
facet normal -1.0 3.3400572686934e-009 -8.496847416164e-010
  outer loop
    vertex 11.2069659384115 -23.0603144179802 28.3249999998301
    vertex 11.2069659239487 -27.3904414369024 28.3249999998301
    vertex 11.2069659226022 -27.640192493164 28.9279523870738
  endloop
endfacet
facet normal -1.0 3.3400572686934e-009 -8.496847416164e-010
  outer loop
    vertex 11.2069659384115 -23.0603144179802 28.3249999998301
    vertex 11.2069659226022 -27.640192493164 28.9279523870738
    vertex 11.2069659387334 -22.8105633617186 28.9279523870738
  endloop
endfacet
facet normal -1.0 3.3400572686934e-009 -8.496847416164e-010
  outer loop
    vertex 11.2069659387334 -22.8105633617186 28.9279523870738
    vertex 11.2069659226022 -27.640192493164 28.9279523870738
    vertex 11.2069659217679 -27.7253779274413 29.5749999998301
  endloop
endfacet
facet normal -1.0 3.3400572686934e-009 -8.496847416164e-010
  outer loop
    vertex 11.2069659387334 -22.8105633617186 28.9279523870738
    vertex 11.2069659217679 -27.7253779274413 29.5749999998301
    vertex 11.2069659384681 -22.7253779274413 29.5749999998301
  endloop
endfacet
facet normal -1.0 3.3400572686934e-009 -8.496847416164e-010
  outer loop
    vertex 11.2069659384681 -22.7253779274413 29.5749999998301
    vertex 11.2069659217679 -27.7253779274413 29.5749999998301
    vertex 11.2069659215026 -27.640192493164 30.2220476125864
  endloop
endfacet
facet normal -1.0 3.3400572686934e-009 -8.496847416164e-010
  outer loop
    vertex 11.2069659384681 -22.7253779274413 29.5749999998301
    vertex 11.2069659215026 -27.640192493164 30.2220476125864
    vertex 11.2069659376338 -22.8105633617186 30.2220476125864
  endloop
endfacet
facet normal -1.0 3.3400572686934e-009 -8.496847416164e-010
  outer loop
    vertex 11.2069659376338 -22.8105633617186 30.2220476125864
    vertex 11.2069659215026 -27.640192493164 30.2220476125864
    vertex 11.2069659218245 -27.3904414369024 30.8249999998301
  endloop
endfacet
facet normal -1.0 3.3400572686934e-009 -8.496847416164e-010
  outer loop
    vertex 11.2069659376338 -22.8105633617186 30.2220476125864
    vertex 11.2069659218245 -27.3904414369024 30.8249999998301
    vertex 11.2069659362873 -23.0603144179802 30.8249999998301
  endloop
endfacet
facet normal -1.0 3.3400572686934e-009 -8.496847416164e-010
  outer loop
    vertex 11.2069659362873 -23.0603144179802 30.8249999998301
    vertex 11.2069659218245 -27.3904414369024 30.8249999998301
    vertex 11.2069659227115 -26.9931448804076 31.3427669527964
  endloop
endfacet
facet normal -1.0 3.3400572686934e-009 -8.496847416164e-010
  outer loop
    vertex 11.2069659362873 -23.0603144179802 30.8249999998301
    vertex 11.2069659227115 -26.9931448804076 31.3427669527964
    vertex 11.2069659345204 -23.4576109744749 31.3427669527964
  endloop
endfacet
facet normal -1.0 3.3400572686934e-009 -8.496847416164e-010
  outer loop
    vertex 11.2069659345204 -23.4576109744749 31.3427669527964
    vertex 11.2069659227115 -26.9931448804076 31.3427669527964
    vertex 11.2069659241033 -26.4753779274413 31.7400635092912
  endloop
endfacet
facet normal -1.0 3.3400572686934e-009 -8.496847416164e-010
  outer loop
    vertex 11.2069659345204 -23.4576109744749 31.3427669527964
    vertex 11.2069659241033 -26.4753779274413 31.7400635092912
    vertex 11.2069659324534 -23.9753779274413 31.7400635092912
  endloop
endfacet
facet normal -1.0 3.3400572686934e-009 -8.496847416164e-010
  outer loop
    vertex 11.2069659324534 -23.9753779274413 31.7400635092912
    vertex 11.2069659241033 -26.4753779274413 31.7400635092912
    vertex 11.206965925905 -25.8724255401976 31.9898145655527
  endloop
endfacet
facet normal -1.0 3.3400572686934e-009 -8.496847416164e-010
  outer loop
    vertex 11.2069659324534 -23.9753779274413 31.7400635092912
    vertex 11.206965925905 -25.8724255401976 31.9898145655527
    vertex 11.2069659302273 -24.578330314685 31.9898145655527
  endloop
endfacet
facet normal -1.0 3.3400572686934e-009 -8.496847416164e-010
  outer loop
    vertex 11.2069659302273 -24.578330314685 31.9898145655527
    vertex 11.206965925905 -25.8724255401976 31.9898145655527
    vertex 11.2069659279938 -25.2253779274413 32.0749999998301
  endloop
endfacet
facet normal -1.35919904966701e-009 -0.608761429008714 -0.79335334029124
  outer loop
    vertex 4.60069346901908 -23.975377905376 31.7400635036779
    vertex 11.2069659345204 -23.4576109744749 31.3427669527964
    vertex 11.2069659324534 -23.9753779274413 31.7400635092912
  endloop
endfacet
facet normal -1.35919904966701e-009 -0.608761429008714 -0.79335334029124
  outer loop
    vertex 11.2069659345204 -23.4576109744749 31.3427669527964
    vertex 4.60069346901908 -23.975377905376 31.7400635036779
    vertex 4.23483764886051 -23.4576109511876 31.3427669468723
  endloop
endfacet
facet normal 2.13259431313328e-009 0.793353340291228 0.608761429008731
  outer loop
    vertex 0.979094180149587 -26.9931448462459 27.8072330381732
    vertex 11.2069659239487 -27.3904414369024 28.3249999998301
    vertex 11.2069659257156 -26.9931448804076 27.8072330468637
  endloop
endfacet
facet normal 2.13259431313328e-009 0.793353340291228 0.608761429008731
  outer loop
    vertex 11.2069659239487 -27.3904414369024 28.3249999998301
    vertex 0.979094180149587 -26.9931448462459 27.8072330381732
    vertex 1.45588676881933 -27.3904414043332 28.3249999915448
  endloop
endfacet
facet normal 3.41096929595464e-009 0.92387953251128 -0.382683432365106
  outer loop
    vertex 11.2069659215026 -27.640192493164 30.2220476125864
    vertex 3.75804504400192 -27.3904414120226 30.8249999935009
    vertex 11.2069659218245 -27.3904414369024 30.8249999998301
  endloop
endfacet
facet normal 3.41096929595464e-009 0.92387953251128 -0.382683432365106
  outer loop
    vertex 3.75804504400192 -27.3904414120226 30.8249999935009
    vertex 11.2069659215026 -27.640192493164 30.2220476125864
    vertex 3.20280831193451 -27.6401924664296 30.2220476057854
  endloop
endfacet
facet normal 2.7074047794913e-009 0.608761429008716 -0.793353340291239
  outer loop
    vertex 4.2348376356424 -26.9931448571202 31.3427669468724
    vertex 11.2069659241033 -26.4753779274413 31.7400635092912
    vertex 11.2069659227115 -26.9931448804076 31.3427669527964
  endloop
endfacet
facet normal 2.7074047794913e-009 0.608761429008716 -0.793353340291239
  outer loop
    vertex 11.2069659241033 -26.4753779274413 31.7400635092912
    vertex 4.2348376356424 -26.9931448571202 31.3427669468724
    vertex 4.60069345967251 -26.4753779053758 31.7400635036779
  endloop
endfacet
facet normal 4.06449152018158e-010 -0.130526192220052 -0.99144486137381
  outer loop
    vertex 4.90912418968767 -25.2253779064062 32.0749999944789
    vertex 11.2069659302273 -24.578330314685 31.9898145655527
    vertex 11.2069659279938 -25.2253779274413 32.0749999998301
  endloop
endfacet
facet normal 4.06449152018158e-010 -0.130526192220052 -0.99144486137381
  outer loop
    vertex 11.2069659302273 -24.578330314685 31.9898145655527
    vertex 4.90912418968767 -25.2253779064062 32.0749999944789
    vertex 4.83068005112813 -24.5783302933879 31.9898145601349
  endloop
endfacet
facet normal 3.16710581995092e-009 0.793353340291188 -0.608761429008783
  outer loop
    vertex 11.2069659218245 -27.3904414369024 30.8249999998301
    vertex 4.2348376356424 -26.9931448571202 31.3427669468724
    vertex 11.2069659227115 -26.9931448804076 31.3427669527964
  endloop
endfacet
facet normal 3.16710581995092e-009 0.793353340291188 -0.608761429008783
  outer loop
    vertex 4.2348376356424 -26.9931448571202 31.3427669468724
    vertex 11.2069659218245 -27.3904414369024 30.8249999998301
    vertex 3.75804504400192 -27.3904414120226 30.8249999935009
  endloop
endfacet
facet normal 1.27837844004691e-009 0.130526192220073 -0.991444861373808
  outer loop
    vertex 4.83068004628992 -25.8724255189004 31.9898145601349
    vertex 11.2069659279938 -25.2253779274413 32.0749999998301
    vertex 11.206965925905 -25.8724255401976 31.9898145655527
  endloop
endfacet
facet normal 1.27837844004691e-009 0.130526192220073 -0.991444861373808
  outer loop
    vertex 11.2069659279938 -25.2253779274413 32.0749999998301
    vertex 4.83068004628992 -25.8724255189004 31.9898145601349
    vertex 4.90912418968767 -25.2253779064062 32.0749999944789
  endloop
endfacet
facet normal -3.4109704634088e-009 -0.923879532511269 0.382683432365132
  outer loop
    vertex 2.01112351707561 -22.8105633310039 28.9279523792602
    vertex 11.2069659384115 -23.0603144179802 28.3249999998301
    vertex 11.2069659387334 -22.8105633617186 28.9279523870738
  endloop
endfacet
facet normal -3.4109704634088e-009 -0.923879532511269 0.382683432365132
  outer loop
    vertex 11.2069659384115 -23.0603144179802 28.3249999998301
    vertex 2.01112351707561 -22.8105633310039 28.9279523792602
    vertex 1.45588678500822 -23.060314385411 28.3249999915448
  endloop
endfacet
facet normal -2.70739512824036e-009 -0.608761429008739 0.793353340291221
  outer loop
    vertex 11.2069659375245 -23.4576109744749 27.8072330468637
    vertex 0.613238369337715 -23.9753778920576 27.4099364813677
    vertex 11.2069659361327 -23.9753779274413 27.409936490369
  endloop
endfacet
facet normal -2.70739512824036e-009 -0.608761429008739 0.793353340291221
  outer loop
    vertex 0.613238369337715 -23.9753778920576 27.4099364813677
    vertex 11.2069659375245 -23.4576109744749 27.8072330468637
    vertex 0.979094193367815 -23.4576109403133 27.8072330381733
  endloop
endfacet
facet normal 2.76828280954068e-009 0.793353340291219 -0.608761429008742
  outer loop
    vertex 11.206965969951 -12.9404414369161 30.8249999999432
    vertex 4.23483769340138 -12.5431448576131 31.3427669509287
    vertex 11.2069659711036 -12.5431448804213 31.3427669529096
  endloop
endfacet
facet normal 2.76828280954068e-009 0.793353340291219 -0.608761429008742
  outer loop
    vertex 4.23483769340138 -12.5431448576131 31.3427669509287
    vertex 11.206965969951 -12.9404414369161 30.8249999999432
    vertex 3.75804510200932 -12.9404414125481 30.8249999978269
  endloop
endfacet
facet normal 3.28042698692769e-009 0.99144486137381 -0.130526192220052
  outer loop
    vertex 11.2069659692104 -13.275377927455 29.5749999999432
    vertex 3.20280837023114 -13.1901924669934 30.2220476104255
    vertex 11.2069659693053 -13.1901924931776 30.2220476126995
  endloop
endfacet
facet normal 3.28042698692769e-009 0.99144486137381 -0.130526192220052
  outer loop
    vertex 3.20280837023114 -13.1901924669934 30.2220476104255
    vertex 11.2069659692104 -13.275377927455 29.5749999999432
    vertex 2.60696596376537 -13.2753778993215 29.5749999974999
  endloop
endfacet
facet normal 3.20626310003932e-009 0.991444861373809 0.130526192220061
  outer loop
    vertex 2.01112355793656 -13.190192463095 28.9279523845744
    vertex 11.2069659692104 -13.275377927455 29.5749999999432
    vertex 11.2069659696729 -13.1901924931776 28.9279523871869
  endloop
endfacet
facet normal 3.20626310003932e-009 0.991444861373809 0.130526192220061
  outer loop
    vertex 11.2069659692104 -13.275377927455 29.5749999999432
    vertex 2.01112355793656 -13.190192463095 28.9279523845744
    vertex 2.60696596376537 -13.2753778993215 29.5749999974999
  endloop
endfacet
facet normal -1.76607280154244e-009 -0.608761429008712 -0.793353340291242
  outer loop
    vertex 4.60069352658769 -9.52537790584376 31.7400635075275
    vertex 11.2069659826695 -9.00761097448859 31.3427669529096
    vertex 11.2069659808628 -9.52537792745496 31.7400635094043
  endloop
endfacet
facet normal -1.76607280154244e-009 -0.608761429008712 -0.793353340291242
  outer loop
    vertex 11.2069659826695 -9.00761097448859 31.3427669529096
    vertex 4.60069352658769 -9.52537790584376 31.7400635075275
    vertex 4.23483770661964 -9.00761095168051 31.3427669509289
  endloop
endfacet
facet normal 1.76607126866209e-009 0.608761429008726 0.793353340291231
  outer loop
    vertex 11.2069659739147 -12.0253779274549 27.4099364904821
    vertex 0.979094239604482 -12.5431448469626 27.8072330440712
    vertex 11.206965972108 -12.5431448804213 27.8072330469768
  endloop
endfacet
facet normal 1.76607126866209e-009 0.608761429008726 0.793353340291231
  outer loop
    vertex 0.979094239604482 -12.5431448469626 27.8072330440712
    vertex 11.2069659739147 -12.0253779274549 27.4099364904821
    vertex 0.613238419636365 -12.0253778927993 27.4099364874724
  endloop
endfacet
facet normal 2.9135959498422e-009 0.923879532511289 0.382683432365084
  outer loop
    vertex 1.45588682802583 -12.9404414050171 28.3249999971729
    vertex 11.2069659696729 -13.1901924931776 28.9279523871869
    vertex 11.2069659706612 -12.9404414369161 28.3249999999432
  endloop
endfacet
facet normal 2.9135959498422e-009 0.923879532511289 0.382683432365084
  outer loop
    vertex 11.2069659696729 -13.1901924931776 28.9279523871869
    vertex 1.45588682802583 -12.9404414050171 28.3249999971729
    vertex 2.01112355793656 -13.190192463095 28.9279523845744
  endloop
endfacet
facet normal 9.89411135531779e-010 0.382683432365089 0.923879532511287
  outer loop
    vertex 11.2069659759581 -11.4224255402112 27.1601854342205
    vertex 0.613238419636365 -12.0253778927993 27.4099364874724
    vertex 11.2069659739147 -12.0253779274549 27.4099364904821
  endloop
endfacet
facet normal 9.89411135531779e-010 0.382683432365089 0.923879532511287
  outer loop
    vertex 0.613238419636365 -12.0253778927993 27.4099364874724
    vertex 11.2069659759581 -11.4224255402112 27.1601854342205
    vertex 0.383251837647106 -11.4224255048032 27.1601854311455
  endloop
endfacet
facet normal 2.42237226518552e-009 0.793353340291215 0.608761429008748
  outer loop
    vertex 0.979094239604482 -12.5431448469626 27.8072330440712
    vertex 11.2069659706612 -12.9404414369161 28.3249999999432
    vertex 11.206965972108 -12.5431448804213 27.8072330469768
  endloop
endfacet
facet normal 2.42237226518552e-009 0.793353340291215 0.608761429008748
  outer loop
    vertex 11.2069659706612 -12.9404414369161 28.3249999999432
    vertex 0.979094239604482 -12.5431448469626 27.8072330440712
    vertex 1.45588682802583 -12.9404414050171 28.3249999971729
  endloop
endfacet
facet normal -2.42236936213306e-009 -0.793353340291238 -0.608761429008717
  outer loop
    vertex 11.2069659826695 -9.00761097448859 31.3427669529096
    vertex 3.75804511819826 -8.61031439362602 30.8249999978269
    vertex 11.2069659841163 -8.61031441799384 30.8249999999432
  endloop
endfacet
facet normal -2.42236936213306e-009 -0.793353340291238 -0.608761429008717
  outer loop
    vertex 3.75804511819826 -8.61031439362602 30.8249999978269
    vertex 11.2069659826695 -9.00761097448859 31.3427669529096
    vertex 4.23483770661964 -9.00761095168051 31.3427669509289
  endloop
endfacet
facet normal -1.99840144432528e-015 -1.0 0.0
  outer loop
    vertex 8.6069659484024 -21.0003779228751 39.1
    vertex 11.4069659371864 -21.0003779228751 33.05
    vertex 11.4069659371864 -21.0003779228751 39.1
  endloop
endfacet
facet normal -1.99840144432528e-015 -1.0 0.0
  outer loop
    vertex 11.4069659371864 -21.0003779228751 33.05
    vertex 8.6069659484024 -21.0003779228751 39.1
    vertex 8.6069659484024 -21.0003779228751 33.05
  endloop
endfacet
facet normal 3.13104178133747e-009 0.923879532511265 -0.382683432365144
  outer loop
    vertex 11.2069659693053 -13.1901924931776 30.2220476126995
    vertex 3.75804510200932 -12.9404414125481 30.8249999978269
    vertex 11.206965969951 -12.9404414369161 30.8249999999432
  endloop
endfacet
facet normal 3.13104178133747e-009 0.923879532511265 -0.382683432365144
  outer loop
    vertex 3.75804510200932 -12.9404414125481 30.8249999978269
    vertex 11.2069659693053 -13.1901924931776 30.2220476126995
    vertex 3.20280837023114 -13.1901924669934 30.2220476104255
  endloop
endfacet
facet normal 1.99840144432528e-015 1.0 0.0
  outer loop
    vertex 8.60696594840241 -15.0003779228751 33.05
    vertex 11.4069659596184 -15.0003779228751 39.1
    vertex 11.4069659596184 -15.0003779228751 33.05
  endloop
endfacet
facet normal 1.99840144432528e-015 1.0 0.0
  outer loop
    vertex 11.4069659596184 -15.0003779228751 39.1
    vertex 8.60696594840241 -15.0003779228751 33.05
    vertex 8.60696594840241 -15.0003779228751 39.1
  endloop
endfacet
facet normal 2.06319385587867e-009 0.382683432365093 -0.923879532511285
  outer loop
    vertex 4.60069345967251 -26.4753779053758 31.7400635036779
    vertex 11.206965925905 -25.8724255401976 31.9898145655527
    vertex 11.2069659241033 -26.4753779274413 31.7400635092912
  endloop
endfacet
facet normal 2.06319385587867e-009 0.382683432365093 -0.923879532511285
  outer loop
    vertex 11.206965925905 -25.8724255401976 31.9898145655527
    vertex 4.60069345967251 -26.4753779053758 31.7400635036779
    vertex 4.83068004628992 -25.8724255189004 31.9898145601349
  endloop
endfacet
facet normal -1.0 1.99840144432528e-015 0.0
  outer loop
    vertex 8.6069659484024 -21.0003779228751 39.1
    vertex 8.60696594840241 -15.0003779228751 33.05
    vertex 8.6069659484024 -21.0003779228751 33.05
  endloop
endfacet
facet normal -1.0 1.99840144432528e-015 0.0
  outer loop
    vertex 8.60696594840241 -15.0003779228751 33.05
    vertex 8.6069659484024 -21.0003779228751 39.1
    vertex 8.60696594840241 -15.0003779228751 39.1
  endloop
endfacet
facet normal -3.73866587246663e-009 -1.0 -8.71214491150206e-016
  outer loop
    vertex 5.8069659055947 -29.4503779124069 33.05
    vertex 11.4069659055947 -29.4503779333434 24.1
    vertex 11.4069659055947 -29.4503779333434 33.05
  endloop
endfacet
facet normal -3.73866587246663e-009 -1.0 -8.71214491150206e-016
  outer loop
    vertex 11.4069659055947 -29.4503779333434 24.1
    vertex 5.8069659055947 -29.4503779124069 33.05
    vertex -0.593034094405303 -29.4503778884794 24.1
  endloop
endfacet
facet normal -3.73866587246663e-009 -1.0 -8.71214491150206e-016
  outer loop
    vertex -0.593034094405303 -29.4503778884794 24.1
    vertex 5.8069659055947 -29.4503779124069 33.05
    vertex -0.593034094405303 -29.4503778884794 26.1
  endloop
endfacet
facet normal -2.13259181359134e-009 -0.793353340291221 -0.608761429008739
  outer loop
    vertex 11.2069659345204 -23.4576109744749 31.3427669527964
    vertex 3.75804506019081 -23.0603143931003 30.8249999935008
    vertex 11.2069659362873 -23.0603144179802 30.8249999998301
  endloop
endfacet
facet normal -2.13259181359134e-009 -0.793353340291221 -0.608761429008739
  outer loop
    vertex 3.75804506019081 -23.0603143931003 30.8249999935008
    vertex 11.2069659345204 -23.4576109744749 31.3427669527964
    vertex 4.23483764886051 -23.4576109511876 31.3427669468723
  endloop
endfacet
facet normal -3.42238907213626e-009 -0.991444861373815 0.13052619222002
  outer loop
    vertex 11.2069659384681 -22.7253779274413 29.5749999998301
    vertex 2.01112351707561 -22.8105633310039 28.9279523792602
    vertex 11.2069659387334 -22.8105633617186 28.9279523870738
  endloop
endfacet
facet normal -3.42238907213626e-009 -0.991444861373815 0.13052619222002
  outer loop
    vertex 2.01112351707561 -22.8105633310039 28.9279523792602
    vertex 11.2069659384681 -22.7253779274413 29.5749999998301
    vertex 2.6069659238517 -22.7253778987168 29.5749999925228
  endloop
endfacet
facet normal 2.21685825435187e-009 0.608761429008758 -0.793353340291207
  outer loop
    vertex 4.23483769340138 -12.5431448576131 31.3427669509287
    vertex 11.2069659726845 -12.0253779274549 31.7400635094043
    vertex 11.2069659711036 -12.5431448804213 31.3427669529096
  endloop
endfacet
facet normal 2.21685825435187e-009 0.608761429008758 -0.793353340291207
  outer loop
    vertex 11.2069659726845 -12.0253779274549 31.7400635094043
    vertex 4.23483769340138 -12.5431448576131 31.3427669509287
    vertex 4.60069351724106 -12.0253779058436 31.7400635075275
  endloop
endfacet
facet normal -2.91359148170905e-009 -0.923879532511272 -0.382683432365127
  outer loop
    vertex 11.2069659841163 -8.61031441799384 30.8249999999432
    vertex 3.2028083882875 -8.36056333554802 30.2220476104255
    vertex 11.2069659851046 -8.36056336173226 30.2220476126995
  endloop
endfacet
facet normal -2.91359148170905e-009 -0.923879532511272 -0.382683432365127
  outer loop
    vertex 3.2028083882875 -8.36056333554802 30.2220476104255
    vertex 11.2069659841163 -8.61031441799384 30.8249999999432
    vertex 3.75804511819826 -8.61031439362602 30.8249999978269
  endloop
endfacet
facet normal 0.0 0.0 1.0
  outer loop
    vertex 11.4069659596184 -15.0003779228751 39.1
    vertex 8.6069659484024 -21.0003779228751 39.1
    vertex 11.4069659371864 -21.0003779228751 39.1
  endloop
endfacet
facet normal 0.0 0.0 1.0
  outer loop
    vertex 8.6069659484024 -21.0003779228751 39.1
    vertex 11.4069659596184 -15.0003779228751 39.1
    vertex 8.60696594840241 -15.0003779228751 39.1
  endloop
endfacet
facet normal 1.35919826669172e-009 0.608761429008713 0.793353340291241
  outer loop
    vertex 11.2069659277825 -26.4753779274413 27.409936490369
    vertex 0.979094180149587 -26.9931448462459 27.8072330381732
    vertex 11.2069659257156 -26.9931448804076 27.8072330468637
  endloop
endfacet
facet normal 1.35919826669172e-009 0.608761429008713 0.793353340291241
  outer loop
    vertex 0.979094180149587 -26.9931448462459 27.8072330381732
    vertex 11.2069659277825 -26.4753779274413 27.409936490369
    vertex 0.613238359990953 -26.4753778920575 27.4099364813676
  endloop
endfacet
facet normal -2.28893383077114e-016 5.76160609054575e-017 1.0
  outer loop
    vertex 11.4069659912101 -6.55037793334336 33.05
    vertex 8.60696594840241 -15.0003779228751 33.05
    vertex 11.4069659596184 -15.0003779228751 33.05
  endloop
endfacet
facet normal -2.28893383077114e-016 5.76160609054575e-017 1.0
  outer loop
    vertex 11.4069659371864 -21.0003779228751 33.05
    vertex 5.8069659055947 -29.4503779124069 33.05
    vertex 11.4069659055947 -29.4503779333434 33.05
  endloop
endfacet
facet normal -2.28893383077114e-016 5.76160609054575e-017 1.0
  outer loop
    vertex 5.8069659055947 -29.4503779124069 33.05
    vertex 11.4069659371864 -21.0003779228751 33.05
    vertex 8.6069659484024 -21.0003779228751 33.05
  endloop
endfacet
facet normal -2.28893383077114e-016 5.76160609054575e-017 1.0
  outer loop
    vertex 5.8069659055947 -29.4503779124069 33.05
    vertex 8.6069659484024 -21.0003779228751 33.05
    vertex 5.80696599121012 -6.55037791240684 33.05
  endloop
endfacet
facet normal -2.28893383077114e-016 5.76160609054575e-017 1.0
  outer loop
    vertex 5.80696599121012 -6.55037791240684 33.05
    vertex 8.6069659484024 -21.0003779228751 33.05
    vertex 8.60696594840241 -15.0003779228751 33.05
  endloop
endfacet
facet normal -2.28893383077114e-016 5.76160609054575e-017 1.0
  outer loop
    vertex 5.80696599121012 -6.55037791240684 33.05
    vertex 8.60696594840241 -15.0003779228751 33.05
    vertex 11.4069659912101 -6.55037793334336 33.05
  endloop
endfacet
facet normal 2.76065344261981e-009 0.92387953251127 0.38268343236513
  outer loop
    vertex 1.45588676881933 -27.3904414043332 28.3249999915448
    vertex 11.2069659226022 -27.640192493164 28.9279523870738
    vertex 11.2069659239487 -27.3904414369024 28.3249999998301
  endloop
endfacet
facet normal 2.76065344261981e-009 0.92387953251127 0.38268343236513
  outer loop
    vertex 11.2069659226022 -27.640192493164 28.9279523870738
    vertex 1.45588676881933 -27.3904414043332 28.3249999915448
    vertex 2.01112349901925 -27.6401924624493 28.9279523792602
  endloop
endfacet
facet normal 3.42238821156322e-009 0.991444861373812 -0.130526192220041
  outer loop
    vertex 2.6069659051584 -27.7253778987168 29.5749999925228
    vertex 11.2069659215026 -27.640192493164 30.2220476125864
    vertex 11.2069659217679 -27.7253779274413 29.5749999998301
  endloop
endfacet
facet normal 3.42238821156322e-009 0.991444861373812 -0.130526192220041
  outer loop
    vertex 11.2069659215026 -27.640192493164 30.2220476125864
    vertex 2.6069659051584 -27.7253778987168 29.5749999925228
    vertex 3.20280831193451 -27.6401924664296 30.2220476057854
  endloop
endfacet
facet normal -2.76826980074725e-009 -0.793353340291211 0.608761429008753
  outer loop
    vertex 1.45588684421465 -8.61031438609485 28.3249999971729
    vertex 11.2069659836739 -9.00761097448859 27.8072330469768
    vertex 11.2069659848265 -8.61031441799384 28.3249999999432
  endloop
endfacet
facet normal -2.76826980074725e-009 -0.793353340291211 0.608761429008753
  outer loop
    vertex 11.2069659836739 -9.00761097448859 27.8072330469768
    vertex 1.45588684421465 -8.61031438609485 28.3249999971729
    vertex 0.979094252822585 -9.00761094102988 27.8072330440711
  endloop
endfacet
endsolid quadruped
