solid new_body_18650
facet normal -4.87187124454491e-011 6.08083991627511e-010 1.0
  outer loop
    vertex 258.638384890817 47.8723022875154 7.00000004372775
    vertex 289.638384975365 48.0723022744366 7.00000003862326
    vertex 258.638384892718 91.2751394204773 7.00000000000025
  endloop
endfacet
facet normal -4.87187124454491e-011 6.08083991627511e-010 1.0
  outer loop
    vertex 289.638384975365 48.0723022744366 7.00000003862326
    vertex 258.638384890817 47.8723022875154 7.00000004372775
    vertex 343.63838521598 47.8723022749594 7.00000003874478
  endloop
endfacet
facet normal -4.87187124454491e-011 6.08083991627511e-010 1.0
  outer loop
    vertex 289.638384975365 48.0723022744366 7.00000003862326
    vertex 343.63838521598 47.8723022749594 7.00000003874478
    vertex 343.438385215968 48.0723022750404 7.00000003862326
  endloop
endfacet
facet normal -4.87187124454491e-011 6.08083991627511e-010 1.0
  outer loop
    vertex 343.438385215968 48.0723022750404 7.00000003862326
    vertex 343.63838521598 47.8723022749594 7.00000003874478
    vertex 343.438385233386 91.0751393941522 7.00000001658584
  endloop
endfacet
facet normal -4.87187124454491e-011 6.08083991627511e-010 1.0
  outer loop
    vertex 258.638384892718 91.2751394204773 7.00000000000025
    vertex 289.638384976334 91.0751393906548 7.00000001658584
    vertex 343.638385233379 91.2751393940712 7.00000001676363
  endloop
endfacet
facet normal -4.87187124454491e-011 6.08083991627511e-010 1.0
  outer loop
    vertex 289.638384976334 91.0751393906548 7.00000001658584
    vertex 258.638384892718 91.2751394204773 7.00000000000025
    vertex 289.638384975365 48.0723022744366 7.00000003862326
  endloop
endfacet
facet normal -4.87187124454491e-011 6.08083991627511e-010 1.0
  outer loop
    vertex 343.638385233379 91.2751393940712 7.00000001676363
    vertex 289.638384976334 91.0751393906548 7.00000001658584
    vertex 343.438385233386 91.0751393941522 7.00000001658584
  endloop
endfacet
facet normal -4.87187124454491e-011 6.08083991627511e-010 1.0
  outer loop
    vertex 343.638385233379 91.2751393940712 7.00000001676363
    vertex 343.438385233386 91.0751393941522 7.00000001658584
    vertex 343.63838521598 47.8723022749594 7.00000003874478
  endloop
endfacet
facet normal 2.70120914975046e-009 6.0178123355182e-011 -1.0
  outer loop
    vertex 321.638385074335 91.275139411172 -5.07999996684612
    vertex 343.638385223891 47.8723022730037 -5.07999992880517
    vertex 321.63838506431 47.8723022648769 -5.07999996421193
  endloop
endfacet
facet normal 2.70120914975046e-009 6.0178123355182e-011 -1.0
  outer loop
    vertex 343.638385223891 47.8723022730037 -5.07999992880517
    vertex 321.638385074335 91.275139411172 -5.07999996684612
    vertex 343.638385251315 91.2751394079146 -5.07999989147464
  endloop
endfacet
facet normal -2.52902543108043e-009 -5.57002808188496e-010 1.0
  outer loop
    vertex 343.438385215968 48.0723022755633 7.10733072395442e-008
    vertex 321.638385056405 91.075139400745 3.29761007888951e-008
    vertex 321.638385056387 48.0723022673555 3.56665440959247e-008
  endloop
endfacet
facet normal -2.52902543108043e-009 -5.57002808188496e-010 1.0
  outer loop
    vertex 321.638385056405 91.075139400745 3.29761007888951e-008
    vertex 343.438385215968 48.0723022755633 7.10733072395442e-008
    vertex 343.438385233386 91.0751393975685 1.08347581201373e-007
  endloop
endfacet
facet normal 1.0 -4.79713897648598e-010 1.06995784991182e-009
  outer loop
    vertex 343.638385251315 91.2751394079146 -5.07999989147464
    vertex 343.63838521598 47.8723022749594 7.00000003874478
    vertex 343.638385223891 47.8723022730037 -5.07999992880517
  endloop
endfacet
facet normal 1.0 -4.79713897648598e-010 1.06995784991182e-009
  outer loop
    vertex 343.63838521598 47.8723022749594 7.00000003874478
    vertex 343.638385251315 91.2751394079146 -5.07999989147464
    vertex 343.638385233379 91.2751393940712 7.00000001676363
  endloop
endfacet
facet normal 2.655553126965e-010 1.0 1.56958233513575e-009
  outer loop
    vertex 258.638384892718 91.2751394204773 7.00000000000025
    vertex 289.638384976693 91.2751393885868 4.60000001676363
    vertex 258.638384893084 91.2751394184093 4.60000000000025
  endloop
endfacet
facet normal 2.655553126965e-010 1.0 1.56958233513575e-009
  outer loop
    vertex 289.638384976693 91.2751393885868 4.60000001676363
    vertex 343.638385251315 91.2751394079146 -5.07999989147464
    vertex 321.638385074335 91.275139411172 -5.07999996684612
  endloop
endfacet
facet normal 2.655553126965e-010 1.0 1.56958233513575e-009
  outer loop
    vertex 343.638385251315 91.2751394079146 -5.07999989147464
    vertex 289.638384976693 91.2751393885868 4.60000001676363
    vertex 343.638385233379 91.2751393940712 7.00000001676363
  endloop
endfacet
facet normal 2.655553126965e-010 1.0 1.56958233513575e-009
  outer loop
    vertex 343.638385233379 91.2751393940712 7.00000001676363
    vertex 289.638384976693 91.2751393885868 4.60000001676363
    vertex 258.638384892718 91.2751394204773 7.00000000000025
  endloop
endfacet
facet normal -0.289542462963374 -4.00755758054501e-010 -0.957165169728351
  outer loop
    vertex 289.638384976693 91.2751393885868 4.60000001676363
    vertex 321.63838506431 47.8723022648769 -5.07999996421193
    vertex 289.638384975742 47.8723022723686 4.60000003874478
  endloop
endfacet
facet normal -0.289542462963374 -4.00755758054501e-010 -0.957165169728351
  outer loop
    vertex 321.63838506431 47.8723022648769 -5.07999996421193
    vertex 289.638384976693 91.2751393885868 4.60000001676363
    vertex 321.638385074335 91.275139411172 -5.07999996684612
  endloop
endfacet
facet normal -1.0 4.05040081575778e-010 1.13966389241545e-019
  outer loop
    vertex 343.438385233386 91.0751393941522 7.00000001658584
    vertex 343.438385215968 48.0723022755633 7.10733072395442e-008
    vertex 343.438385215968 48.0723022750404 7.00000003862326
  endloop
endfacet
facet normal -1.0 4.05040081575778e-010 1.13966389241545e-019
  outer loop
    vertex 343.438385215968 48.0723022755633 7.10733072395442e-008
    vertex 343.438385233386 91.0751393941522 7.00000001658584
    vertex 343.438385233386 91.0751393975685 1.08347581201373e-007
  endloop
endfacet
facet normal 3.42254614956553e-011 -1.0 -7.53698810265262e-010
  outer loop
    vertex 343.438385233386 91.0751393975685 1.08347581201373e-007
    vertex 289.638384976334 91.0751393906548 7.00000001658584
    vertex 321.638385056405 91.075139400745 3.29761007888951e-008
  endloop
endfacet
facet normal 3.42254614956553e-011 -1.0 -7.53698810265262e-010
  outer loop
    vertex 289.638384976334 91.0751393906548 7.00000001658584
    vertex 343.438385233386 91.0751393975685 1.08347581201373e-007
    vertex 343.438385233386 91.0751393941522 7.00000001658584
  endloop
endfacet
facet normal -6.18052407667477e-011 1.0 -3.81582344908142e-010
  outer loop
    vertex 289.638384975365 48.0723022744366 7.00000003862326
    vertex 343.438385215968 48.0723022755633 7.10733072395442e-008
    vertex 321.638385056387 48.0723022673555 3.56665440959247e-008
  endloop
endfacet
facet normal -6.18052407667477e-011 1.0 -3.81582344908142e-010
  outer loop
    vertex 343.438385215968 48.0723022755633 7.10733072395442e-008
    vertex 289.638384975365 48.0723022744366 7.00000003862326
    vertex 343.438385215968 48.0723022750404 7.00000003862326
  endloop
endfacet
facet normal 0.213696878156163 5.77181255599773e-011 0.976900017538289
  outer loop
    vertex 298.610810515324 64.1737208336148 4.8325527074572
    vertex 312.580480765989 74.9737208336148 1.77668734921511
    vertex 298.610810515058 74.9737208336148 4.83255270623928
  endloop
endfacet
facet normal 0.213696878156163 5.77181255599773e-011 0.976900017538289
  outer loop
    vertex 312.580480765989 74.9737208336148 1.77668734921511
    vertex 298.610810515324 64.1737208336148 4.8325527074572
    vertex 312.580480765989 64.1737208336148 1.77668734921511
  endloop
endfacet
facet normal 0.213696878003485 2.75753995256552e-010 0.976900017571688
  outer loop
    vertex 321.638385056387 48.0723022673555 3.56665440959247e-008
    vertex 289.638384976334 91.0751393906548 7.00000001658584
    vertex 289.638384975365 48.0723022744366 7.00000003862326
  endloop
endfacet
facet normal 0.213696878003485 2.75753995256552e-010 0.976900017571688
  outer loop
    vertex 289.638384976334 91.0751393906548 7.00000001658584
    vertex 321.638385056387 48.0723022673555 3.56665440959247e-008
    vertex 321.638385056405 91.075139400745 3.29761007888951e-008
  endloop
endfacet
facet normal 0.213696878136248 5.77181150424063e-011 0.976900017542646
  outer loop
    vertex 298.354374261563 64.1737208335456 3.66027268640559
    vertex 312.324044512227 74.9737208335456 0.604407328163503
    vertex 298.354374261296 74.9737208335455 3.66027268518767
  endloop
endfacet
facet normal 0.213696878136248 5.77181150424063e-011 0.976900017542646
  outer loop
    vertex 312.324044512227 74.9737208335456 0.604407328163503
    vertex 298.354374261563 64.1737208335456 3.66027268640559
    vertex 312.324044512227 64.1737208335456 0.604407328163503
  endloop
endfacet
facet normal -9.14506912993821e-011 2.64860913156742e-010 1.0
  outer loop
    vertex 281.288384933938 64.1737208379527 5.60000002789943
    vertex 266.988384933938 74.9737208379528 5.60000002443586
    vertex 266.988384933938 64.1737208379527 5.60000002669329
  endloop
endfacet
facet normal -9.14506912993821e-011 2.64860913156742e-010 1.0
  outer loop
    vertex 266.988384933938 74.9737208379528 5.60000002443586
    vertex 281.288384933938 64.1737208379527 5.60000002789943
    vertex 281.288384933938 74.9737208379528 5.60000002443586
  endloop
endfacet
facet normal -1.23341545766441e-011 1.0 -5.63828611947065e-011
  outer loop
    vertex 298.354374261563 64.1737208335456 3.66027268640559
    vertex 312.580480765989 64.1737208336148 1.77668734921511
    vertex 312.324044512227 64.1737208335456 0.604407328163503
  endloop
endfacet
facet normal -1.23341545766441e-011 1.0 -5.63828611947065e-011
  outer loop
    vertex 312.580480765989 64.1737208336148 1.77668734921511
    vertex 298.354374261563 64.1737208335456 3.66027268640559
    vertex 298.610810515324 64.1737208336148 4.8325527074572
  endloop
endfacet
facet normal 1.233580115554e-011 -1.0 5.6388542826971e-011
  outer loop
    vertex 312.580480765989 74.9737208336148 1.77668734921511
    vertex 298.354374261296 74.9737208335455 3.66027268518767
    vertex 312.324044512227 74.9737208335456 0.604407328163503
  endloop
endfacet
facet normal 1.233580115554e-011 -1.0 5.6388542826971e-011
  outer loop
    vertex 298.354374261296 74.9737208335455 3.66027268518767
    vertex 312.580480765989 74.9737208336148 1.77668734921511
    vertex 298.610810515058 74.9737208336148 4.83255270623928
  endloop
endfacet
facet normal 1.0 1.94178291648426e-020 9.289887722135e-011
  outer loop
    vertex 266.988384933938 74.9737208379528 5.60000002443586
    vertex 266.988384933823 64.1737208382706 6.80000002669329
    vertex 266.988384933938 64.1737208379527 5.60000002669329
  endloop
endfacet
facet normal 1.0 1.94178291648426e-020 9.289887722135e-011
  outer loop
    vertex 266.988384933823 64.1737208382706 6.80000002669329
    vertex 266.988384933938 74.9737208379528 5.60000002443586
    vertex 266.988384933823 74.9737208382706 6.80000002443586
  endloop
endfacet
facet normal 0.976900017542772 -3.12738869717125e-015 -0.21369687813567
  outer loop
    vertex 298.354374261296 74.9737208335455 3.66027268518767
    vertex 298.610810515324 64.1737208336148 4.8325527074572
    vertex 298.354374261563 64.1737208335456 3.66027268640559
  endloop
endfacet
facet normal 0.976900017542772 -3.12738869717125e-015 -0.21369687813567
  outer loop
    vertex 298.610810515324 64.1737208336148 4.8325527074572
    vertex 298.354374261296 74.9737208335455 3.66027268518767
    vertex 298.610810515058 74.9737208336148 4.83255270623928
  endloop
endfacet
facet normal -0.976900017542772 1.0745618954895e-018 0.21369687813567
  outer loop
    vertex 312.580480765989 64.1737208336148 1.77668734921511
    vertex 312.324044512227 74.9737208335456 0.604407328163503
    vertex 312.324044512227 64.1737208335456 0.604407328163503
  endloop
endfacet
facet normal -0.976900017542772 1.0745618954895e-018 0.21369687813567
  outer loop
    vertex 312.324044512227 74.9737208335456 0.604407328163503
    vertex 312.580480765989 64.1737208336148 1.77668734921511
    vertex 312.580480765989 74.9737208336148 1.77668734921511
  endloop
endfacet
facet normal 9.77765014730487e-011 1.49141201505723e-010 1.0
  outer loop
    vertex 260.365644229765 49.5159563329538 6.80000004381346
    vertex 260.365644229765 49.9300668051178 6.80000004375776
    vertex 260.338384890796 49.7230115690358 6.80000004378778
  endloop
endfacet
facet normal 9.77765014730487e-011 1.49141201505723e-010 1.0
  outer loop
    vertex 260.365644229765 49.9300668051178 6.80000004375776
    vertex 260.365644229765 49.5159563329538 6.80000004381346
    vertex 260.445564567769 49.3230115690358 6.80000004383304
  endloop
endfacet
facet normal 9.77765014730487e-011 1.49141201505723e-010 1.0
  outer loop
    vertex 260.365644229765 49.9300668051178 6.80000004375776
    vertex 260.445564567769 49.3230115690358 6.80000004383304
    vertex 260.445564567769 50.1230115690358 6.80000004372543
  endloop
endfacet
facet normal 9.77765014730487e-011 1.49141201505723e-010 1.0
  outer loop
    vertex 260.445564567769 50.1230115690358 6.80000004372543
    vertex 260.445564567769 49.3230115690358 6.80000004383304
    vertex 260.572699465847 49.1573261440866 6.8000000438452
  endloop
endfacet
facet normal 9.77765014730487e-011 1.49141201505723e-010 1.0
  outer loop
    vertex 260.445564567769 50.1230115690358 6.80000004372543
    vertex 260.572699465847 49.1573261440866 6.8000000438452
    vertex 260.572699465847 50.288696993985 6.800000043693
  endloop
endfacet
facet normal 9.77765014730487e-011 1.49141201505723e-010 1.0
  outer loop
    vertex 260.572699465847 50.288696993985 6.800000043693
    vertex 260.572699465847 49.1573261440866 6.8000000438452
    vertex 260.638384890796 49.1069239448064 6.80000004378272
  endloop
endfacet
facet normal 9.77765014730487e-011 1.49141201505723e-010 1.0
  outer loop
    vertex 260.572699465847 50.288696993985 6.800000043693
    vertex 260.638384890796 49.1069239448064 6.80000004378272
    vertex 260.638384890796 50.3390991932652 6.80000004373884
  endloop
endfacet
facet normal 9.77765014730487e-011 1.49141201505723e-010 1.0
  outer loop
    vertex 260.638384890796 50.3390991932652 6.80000004373884
    vertex 260.638384890796 49.1069239448064 6.80000004378272
    vertex 260.738384890796 49.0301912460083 6.80000004384909
  endloop
endfacet
facet normal 9.77765014730487e-011 1.49141201505723e-010 1.0
  outer loop
    vertex 260.638384890796 50.3390991932652 6.80000004373884
    vertex 260.738384890796 49.0301912460083 6.80000004384909
    vertex 260.738384890796 50.4158318920634 6.80000004366269
  endloop
endfacet
facet normal 9.77765014730487e-011 1.49141201505723e-010 1.0
  outer loop
    vertex 260.738384890796 50.4158318920634 6.80000004366269
    vertex 260.738384890796 49.0301912460083 6.80000004384909
    vertex 260.931329654714 48.9502709080046 6.80000004384446
  endloop
endfacet
facet normal 9.77765014730487e-011 1.49141201505723e-010 1.0
  outer loop
    vertex 260.738384890796 50.4158318920634 6.80000004366269
    vertex 260.931329654714 48.9502709080046 6.80000004384446
    vertex 260.931329654714 50.4957522300671 6.80000004363656
  endloop
endfacet
facet normal 9.77765014730487e-011 1.49141201505723e-010 1.0
  outer loop
    vertex 260.931329654714 50.4957522300671 6.80000004363656
    vertex 260.931329654714 48.9502709080046 6.80000004384446
    vertex 261.138384890796 48.9230115690358 6.80000004383162
  endloop
endfacet
facet normal 9.77765014730487e-011 1.49141201505723e-010 1.0
  outer loop
    vertex 260.931329654714 50.4957522300671 6.80000004363656
    vertex 261.138384890796 48.9230115690358 6.80000004383162
    vertex 261.138384890796 50.5230115690358 6.80000004361638
  endloop
endfacet
facet normal 9.77765014730487e-011 1.49141201505723e-010 1.0
  outer loop
    vertex 261.138384890796 50.5230115690358 6.80000004361638
    vertex 261.138384890796 48.9230115690358 6.80000004383162
    vertex 261.224619867725 48.9343646191279 6.80000004331122
  endloop
endfacet
facet normal 9.77765014730487e-011 1.49141201505723e-010 1.0
  outer loop
    vertex 261.138384890796 50.5230115690358 6.80000004361638
    vertex 261.224619867725 48.9343646191279 6.80000004331122
    vertex 261.224619867725 50.5116585189437 6.80000004282434
  endloop
endfacet
facet normal 9.77765014730487e-011 1.49141201505723e-010 1.0
  outer loop
    vertex 261.224619867725 50.5116585189437 6.80000004282434
    vertex 261.224619867725 48.9343646191279 6.80000004331122
    vertex 261.345440126878 48.9502709080046 6.80000004381144
  endloop
endfacet
facet normal 9.77765014730487e-011 1.49141201505723e-010 1.0
  outer loop
    vertex 261.224619867725 50.5116585189437 6.80000004282434
    vertex 261.345440126878 48.9502709080046 6.80000004381144
    vertex 261.345440126878 50.4957522300671 6.80000004360354
  endloop
endfacet
facet normal 9.77765014730487e-011 1.49141201505723e-010 1.0
  outer loop
    vertex 261.345440126878 50.4957522300671 6.80000004360354
    vertex 261.345440126878 48.9502709080046 6.80000004381144
    vertex 261.538384890796 49.0301912460083 6.80000004378531
  endloop
endfacet
facet normal 9.77765014730487e-011 1.49141201505723e-010 1.0
  outer loop
    vertex 261.345440126878 50.4957522300671 6.80000004360354
    vertex 261.538384890796 49.0301912460083 6.80000004378531
    vertex 261.538384890796 50.4158318920634 6.80000004359891
  endloop
endfacet
facet normal 9.77765014730487e-011 1.49141201505723e-010 1.0
  outer loop
    vertex 261.538384890796 50.4158318920634 6.80000004359891
    vertex 261.538384890796 49.0301912460083 6.80000004378531
    vertex 261.704070315746 49.1573261440866 6.800000043755
  endloop
endfacet
facet normal 9.77765014730487e-011 1.49141201505723e-010 1.0
  outer loop
    vertex 261.538384890796 50.4158318920634 6.80000004359891
    vertex 261.704070315746 49.1573261440866 6.800000043755
    vertex 261.704070315746 50.288696993985 6.8000000436028
  endloop
endfacet
facet normal 9.77765014730487e-011 1.49141201505723e-010 1.0
  outer loop
    vertex 261.704070315746 50.288696993985 6.8000000436028
    vertex 261.704070315746 49.1573261440866 6.800000043755
    vertex 261.831205213824 49.3230115690358 6.80000004372257
  endloop
endfacet
facet normal 9.77765014730487e-011 1.49141201505723e-010 1.0
  outer loop
    vertex 261.704070315746 50.288696993985 6.8000000436028
    vertex 261.831205213824 49.3230115690358 6.80000004372257
    vertex 261.831205213824 50.1230115690358 6.80000004361495
  endloop
endfacet
facet normal 9.77765014730487e-011 1.49141201505723e-010 1.0
  outer loop
    vertex 261.831205213824 50.1230115690358 6.80000004361495
    vertex 261.831205213824 49.3230115690358 6.80000004372257
    vertex 261.911125551828 49.5159563329538 6.80000004369025
  endloop
endfacet
facet normal 9.77765014730487e-011 1.49141201505723e-010 1.0
  outer loop
    vertex 261.831205213824 50.1230115690358 6.80000004361495
    vertex 261.911125551828 49.5159563329538 6.80000004369025
    vertex 261.911125551828 49.9300668051178 6.80000004363454
  endloop
endfacet
facet normal 9.77765014730487e-011 1.49141201505723e-010 1.0
  outer loop
    vertex 261.911125551828 49.9300668051178 6.80000004363454
    vertex 261.911125551828 49.5159563329538 6.80000004369025
    vertex 261.938384890796 49.7230115690358 6.80000004366022
  endloop
endfacet
facet normal -2.99386349799e-010 -1.19605049752199e-011 1.0
  outer loop
    vertex 260.365644231747 89.2173748989419 6.80000000021688
    vertex 260.365644231747 89.6314853711059 6.80000000021909
    vertex 260.338384892778 89.4244301350239 6.80000000021623
  endloop
endfacet
facet normal -2.99386349799e-010 -1.19605049752199e-011 1.0
  outer loop
    vertex 260.365644231747 89.6314853711059 6.80000000021909
    vertex 260.365644231747 89.2173748989419 6.80000000021688
    vertex 260.44556456975 89.0244301350239 6.80000000022096
  endloop
endfacet
facet normal -2.99386349799e-010 -1.19605049752199e-011 1.0
  outer loop
    vertex 260.365644231747 89.6314853711059 6.80000000021909
    vertex 260.44556456975 89.0244301350239 6.80000000022096
    vertex 260.44556456975 89.8244301350239 6.80000000022523
  endloop
endfacet
facet normal -2.99386349799e-010 -1.19605049752199e-011 1.0
  outer loop
    vertex 260.44556456975 89.8244301350239 6.80000000022523
    vertex 260.44556456975 89.0244301350239 6.80000000022096
    vertex 260.572699467829 88.8587447100747 6.80000000022821
  endloop
endfacet
facet normal -2.99386349799e-010 -1.19605049752199e-011 1.0
  outer loop
    vertex 260.44556456975 89.8244301350239 6.80000000022523
    vertex 260.572699467829 88.8587447100747 6.80000000022821
    vertex 260.572699467829 89.9901155599731 6.80000000023426
  endloop
endfacet
facet normal -2.99386349799e-010 -1.19605049752199e-011 1.0
  outer loop
    vertex 260.572699467829 89.9901155599731 6.80000000023426
    vertex 260.572699467829 88.8587447100747 6.80000000022821
    vertex 260.638384893095 88.8083425105509 6.80000000071754
  endloop
endfacet
facet normal -2.99386349799e-010 -1.19605049752199e-011 1.0
  outer loop
    vertex 260.572699467829 89.9901155599731 6.80000000023426
    vertex 260.638384893095 88.8083425105509 6.80000000071754
    vertex 260.638384893411 90.0405177597398 6.80000000132104
  endloop
endfacet
facet normal -2.99386349799e-010 -1.19605049752199e-011 1.0
  outer loop
    vertex 260.638384893411 90.0405177597398 6.80000000132104
    vertex 260.638384893095 88.8083425105509 6.80000000071754
    vertex 260.738384892778 88.7316098119964 6.80000000023815
  endloop
endfacet
facet normal -2.99386349799e-010 -1.19605049752199e-011 1.0
  outer loop
    vertex 260.638384893411 90.0405177597398 6.80000000132104
    vertex 260.738384892778 88.7316098119964 6.80000000023815
    vertex 260.738384892778 90.1172504580514 6.80000000024555
  endloop
endfacet
facet normal -2.99386349799e-010 -1.19605049752199e-011 1.0
  outer loop
    vertex 260.738384892778 90.1172504580514 6.80000000024555
    vertex 260.738384892778 88.7316098119964 6.80000000023815
    vertex 260.931329656696 88.6516894739926 6.80000000025008
  endloop
endfacet
facet normal -2.99386349799e-010 -1.19605049752199e-011 1.0
  outer loop
    vertex 260.738384892778 90.1172504580514 6.80000000024555
    vertex 260.931329656696 88.6516894739926 6.80000000025008
    vertex 260.931329656696 90.1971707960552 6.80000000025833
  endloop
endfacet
facet normal -2.99386349799e-010 -1.19605049752199e-011 1.0
  outer loop
    vertex 260.931329656696 90.1971707960552 6.80000000025833
    vertex 260.931329656696 88.6516894739926 6.80000000025008
    vertex 261.138384892778 88.6244301350239 6.80000000026319
  endloop
endfacet
facet normal -2.99386349799e-010 -1.19605049752199e-011 1.0
  outer loop
    vertex 260.931329656696 90.1971707960552 6.80000000025833
    vertex 261.138384892778 88.6244301350239 6.80000000026319
    vertex 261.138384892778 90.2244301350239 6.80000000027173
  endloop
endfacet
facet normal -2.99386349799e-010 -1.19605049752199e-011 1.0
  outer loop
    vertex 261.138384892778 90.2244301350239 6.80000000027173
    vertex 261.138384892778 88.6244301350239 6.80000000026319
    vertex 261.224619867805 88.6357831848656 6.80000001194928
  endloop
endfacet
facet normal -2.99386349799e-010 -1.19605049752199e-011 1.0
  outer loop
    vertex 261.138384892778 90.2244301350239 6.80000000027173
    vertex 261.224619867805 88.6357831848656 6.80000001194928
    vertex 261.224619867805 90.2130770851822 6.8000000115727
  endloop
endfacet
facet normal -2.99386349799e-010 -1.19605049752199e-011 1.0
  outer loop
    vertex 261.224619867805 90.2130770851822 6.8000000115727
    vertex 261.224619867805 88.6357831848656 6.80000001194928
    vertex 261.34544012886 88.6516894739926 6.8000000002766
  endloop
endfacet
facet normal -2.99386349799e-010 -1.19605049752199e-011 1.0
  outer loop
    vertex 261.224619867805 90.2130770851822 6.8000000115727
    vertex 261.34544012886 88.6516894739926 6.8000000002766
    vertex 261.34544012886 90.1971707960552 6.80000000028485
  endloop
endfacet
facet normal -2.99386349799e-010 -1.19605049752199e-011 1.0
  outer loop
    vertex 261.34544012886 90.1971707960552 6.80000000028485
    vertex 261.34544012886 88.6516894739926 6.8000000002766
    vertex 261.538384892778 88.7316098119964 6.80000000028938
  endloop
endfacet
facet normal -2.99386349799e-010 -1.19605049752199e-011 1.0
  outer loop
    vertex 261.34544012886 90.1971707960552 6.80000000028485
    vertex 261.538384892778 88.7316098119964 6.80000000028938
    vertex 261.538384892778 90.1172504580514 6.80000000029678
  endloop
endfacet
facet normal -2.99386349799e-010 -1.19605049752199e-011 1.0
  outer loop
    vertex 261.538384892778 90.1172504580514 6.80000000029678
    vertex 261.538384892778 88.7316098119964 6.80000000028938
    vertex 261.704070317727 88.8587447100747 6.80000000030067
  endloop
endfacet
facet normal -2.99386349799e-010 -1.19605049752199e-011 1.0
  outer loop
    vertex 261.538384892778 90.1172504580514 6.80000000029678
    vertex 261.704070317727 88.8587447100747 6.80000000030067
    vertex 261.704070317727 89.9901155599731 6.80000000030671
  endloop
endfacet
facet normal -2.99386349799e-010 -1.19605049752199e-011 1.0
  outer loop
    vertex 261.704070317727 89.9901155599731 6.80000000030671
    vertex 261.704070317727 88.8587447100747 6.80000000030067
    vertex 261.831205215805 89.0244301350239 6.8000000003097
  endloop
endfacet
facet normal -2.99386349799e-010 -1.19605049752199e-011 1.0
  outer loop
    vertex 261.704070317727 89.9901155599731 6.80000000030671
    vertex 261.831205215805 89.0244301350239 6.8000000003097
    vertex 261.831205215805 89.8244301350239 6.80000000031397
  endloop
endfacet
facet normal -2.99386349799e-010 -1.19605049752199e-011 1.0
  outer loop
    vertex 261.831205215805 89.8244301350239 6.80000000031397
    vertex 261.831205215805 89.0244301350239 6.8000000003097
    vertex 261.911125553809 89.2173748989419 6.80000000031585
  endloop
endfacet
facet normal -2.99386349799e-010 -1.19605049752199e-011 1.0
  outer loop
    vertex 261.831205215805 89.8244301350239 6.80000000031397
    vertex 261.911125553809 89.2173748989419 6.80000000031585
    vertex 261.911125553809 89.6314853711059 6.80000000031806
  endloop
endfacet
facet normal -2.99386349799e-010 -1.19605049752199e-011 1.0
  outer loop
    vertex 261.911125553809 89.6314853711059 6.80000000031806
    vertex 261.911125553809 89.2173748989419 6.80000000031585
    vertex 261.938384892778 89.4244301350239 6.8000000003187
  endloop
endfacet
facet normal -4.21726973467305e-011 2.64860913037181e-010 1.0
  outer loop
    vertex 281.288384933823 64.1737208382706 6.80000002789943
    vertex 266.988384933823 74.9737208382706 6.80000002443586
    vertex 266.988384933823 64.1737208382706 6.80000002669329
  endloop
endfacet
facet normal -4.21726973467305e-011 2.64860913037181e-010 1.0
  outer loop
    vertex 266.988384933823 74.9737208382706 6.80000002443586
    vertex 281.288384933823 64.1737208382706 6.80000002789943
    vertex 281.288384933823 74.9737208382706 6.80000002443586
  endloop
endfacet
facet normal -2.70432308580216e-028 -1.0 2.64859777520962e-010
  outer loop
    vertex 281.288384933823 74.9737208382706 6.80000002443586
    vertex 266.988384933938 74.9737208379528 5.60000002443586
    vertex 281.288384933938 74.9737208379528 5.60000002443586
  endloop
endfacet
facet normal -2.70432308580216e-028 -1.0 2.64859777520962e-010
  outer loop
    vertex 266.988384933938 74.9737208379528 5.60000002443586
    vertex 281.288384933823 74.9737208382706 6.80000002443586
    vertex 266.988384933823 74.9737208382706 6.80000002443586
  endloop
endfacet
facet normal -1.0 -2.97927340942276e-020 -9.289887722135e-011
  outer loop
    vertex 281.288384933823 64.1737208382706 6.80000002789943
    vertex 281.288384933938 74.9737208379528 5.60000002443586
    vertex 281.288384933938 64.1737208379527 5.60000002789943
  endloop
endfacet
facet normal -1.0 -2.97927340942276e-020 -9.289887722135e-011
  outer loop
    vertex 281.288384933938 74.9737208379528 5.60000002443586
    vertex 281.288384933823 64.1737208382706 6.80000002789943
    vertex 281.288384933823 74.9737208382706 6.80000002443586
  endloop
endfacet
facet normal 2.23397030786165e-020 1.0 -2.64859777520962e-010
  outer loop
    vertex 266.988384933823 64.1737208382706 6.80000002669329
    vertex 281.288384933938 64.1737208379527 5.60000002789943
    vertex 266.988384933938 64.1737208379527 5.60000002669329
  endloop
endfacet
facet normal 2.23397030786165e-020 1.0 -2.64859777520962e-010
  outer loop
    vertex 281.288384933938 64.1737208379527 5.60000002789943
    vertex 266.988384933823 64.1737208382706 6.80000002669329
    vertex 281.288384933823 64.1737208382706 6.80000002789943
  endloop
endfacet
facet normal -0.608761429008691 -0.793353340291258 6.06484681334253e-010
  outer loop
    vertex 261.704070316131 50.2886969919468 4.6000000436028
    vertex 261.538384890796 50.4158318920634 6.80000004359891
    vertex 261.538384891181 50.4158318900252 4.60000004359891
  endloop
endfacet
facet normal -0.608761429008691 -0.793353340291258 6.06484681334253e-010
  outer loop
    vertex 261.538384890796 50.4158318920634 6.80000004359891
    vertex 261.704070316131 50.2886969919468 4.6000000436028
    vertex 261.704070315746 50.288696993985 6.8000000436028
  endloop
endfacet
facet normal -0.382683432365083 -0.92387953251129 7.58991285754738e-010
  outer loop
    vertex 261.538384890796 50.4158318920634 6.80000004359891
    vertex 261.345440127263 50.4957522280288 4.60000004360354
    vertex 261.538384891181 50.4158318900252 4.60000004359891
  endloop
endfacet
facet normal -0.382683432365083 -0.92387953251129 7.58991285754738e-010
  outer loop
    vertex 261.345440127263 50.4957522280288 4.60000004360354
    vertex 261.538384890796 50.4158318920634 6.80000004359891
    vertex 261.345440126878 50.4957522300671 6.80000004360354
  endloop
endfacet
facet normal 0.923879532511251 0.382683432365175 -2.06796651520667e-010
  outer loop
    vertex 260.365644232052 89.2173748968714 4.60000000021688
    vertex 260.44556456975 89.0244301350239 6.80000000022096
    vertex 260.445564570056 89.0244301329535 4.60000000022096
  endloop
endfacet
facet normal 0.923879532511251 0.382683432365175 -2.06796651520667e-010
  outer loop
    vertex 260.44556456975 89.0244301350239 6.80000000022096
    vertex 260.365644232052 89.2173748968714 4.60000000021688
    vertex 260.365644231747 89.2173748989419 6.80000000021688
  endloop
endfacet
facet normal 0.991444861373803 0.130526192220109 2.86758804389475e-011
  outer loop
    vertex 260.338384893083 89.4244301329535 4.60000000021623
    vertex 260.365644231747 89.2173748989419 6.80000000021688
    vertex 260.365644232052 89.2173748968714 4.60000000021688
  endloop
endfacet
facet normal 0.991444861373803 0.130526192220109 2.86758804389475e-011
  outer loop
    vertex 260.365644231747 89.2173748989419 6.80000000021688
    vertex 260.338384893083 89.4244301329535 4.60000000021623
    vertex 260.338384892778 89.4244301350239 6.80000000021623
  endloop
endfacet
facet normal -0.382683432365083 0.92387953251129 -8.82687376832888e-010
  outer loop
    vertex 261.345440127263 48.9502709059663 4.60000004381144
    vertex 261.538384890796 49.0301912460083 6.80000004378531
    vertex 261.538384891181 49.03019124397 4.60000004378531
  endloop
endfacet
facet normal -0.382683432365083 0.92387953251129 -8.82687376832888e-010
  outer loop
    vertex 261.538384890796 49.0301912460083 6.80000004378531
    vertex 261.345440127263 48.9502709059663 4.60000004381144
    vertex 261.345440126878 48.9502709080046 6.80000004381144
  endloop
endfacet
facet normal -0.130526192206216 -0.991444861375632 8.53376384359135e-010
  outer loop
    vertex 261.345440126878 50.4957522300671 6.80000004360354
    vertex 261.138384891181 50.5230115669976 4.60000004361638
    vertex 261.345440127263 50.4957522280288 4.60000004360354
  endloop
endfacet
facet normal -0.130526192206216 -0.991444861375632 8.53376384359135e-010
  outer loop
    vertex 261.138384891181 50.5230115669976 4.60000004361638
    vertex 261.345440126878 50.4957522300671 6.80000004360354
    vertex 261.224619867725 50.5116585189437 6.80000004282434
  endloop
endfacet
facet normal -0.130526192206216 -0.991444861375632 8.53376384359135e-010
  outer loop
    vertex 261.138384890796 50.5230115690358 6.80000004361638
    vertex 261.138384891181 50.5230115669976 4.60000004361638
    vertex 261.224619867725 50.5116585189437 6.80000004282434
  endloop
endfacet
facet normal -0.923879532511259 0.382683432365156 -4.8931717415559e-010
  outer loop
    vertex 261.831205213824 49.3230115690358 6.80000004372257
    vertex 261.911125552213 49.5159563309156 4.60000004369025
    vertex 261.831205214209 49.3230115669976 4.60000004372257
  endloop
endfacet
facet normal -0.923879532511259 0.382683432365156 -4.8931717415559e-010
  outer loop
    vertex 261.911125552213 49.5159563309156 4.60000004369025
    vertex 261.831205213824 49.3230115690358 6.80000004372257
    vertex 261.911125551828 49.5159563329538 6.80000004369025
  endloop
endfacet
facet normal 0.793353340291204 0.608761429008762 -4.2817632927578e-010
  outer loop
    vertex 260.445564570056 89.0244301329535 4.60000000022096
    vertex 260.572699467829 88.8587447100747 6.80000000022821
    vertex 260.572699468134 88.8587447080043 4.60000000022821
  endloop
endfacet
facet normal 0.793353340291204 0.608761429008762 -4.2817632927578e-010
  outer loop
    vertex 260.572699467829 88.8587447100747 6.80000000022821
    vertex 260.445564570056 89.0244301329535 4.60000000022096
    vertex 260.44556456975 89.0244301350239 6.80000000022096
  endloop
endfacet
facet normal 0.382683432365083 0.92387953251129 -7.58991286276243e-010
  outer loop
    vertex 260.738384891181 49.03019124397 4.60000004384909
    vertex 260.931329654714 48.9502709080046 6.80000004384446
    vertex 260.931329655099 48.9502709059663 4.60000004384446
  endloop
endfacet
facet normal 0.382683432365083 0.92387953251129 -7.58991286276243e-010
  outer loop
    vertex 260.931329654714 48.9502709080046 6.80000004384446
    vertex 260.738384891181 49.03019124397 4.60000004384909
    vertex 260.738384890796 49.0301912460083 6.80000004384909
  endloop
endfacet
facet normal 1.48749728894815e-010 -7.70295802341176e-010 -1.0
  outer loop
    vertex 260.338384893083 89.4244301329535 4.60000000021623
    vertex 260.36564423015 49.9300668030796 4.60000004375776
    vertex 260.338384891181 49.7230115669976 4.60000004378778
  endloop
endfacet
facet normal 1.48749728894815e-010 -7.70295802341176e-010 -1.0
  outer loop
    vertex 260.36564423015 49.9300668030796 4.60000004375776
    vertex 260.338384893083 89.4244301329535 4.60000000021623
    vertex 260.365644232052 89.2173748968714 4.60000000021688
  endloop
endfacet
facet normal 1.48749728894815e-010 -7.70295802341176e-010 -1.0
  outer loop
    vertex 260.36564423015 49.9300668030796 4.60000004375776
    vertex 260.365644232052 89.2173748968714 4.60000000021688
    vertex 260.445564568154 50.1230115669976 4.60000004372543
  endloop
endfacet
facet normal 1.48749728894815e-010 -7.70295802341176e-010 -1.0
  outer loop
    vertex 260.445564568154 50.1230115669976 4.60000004372543
    vertex 260.365644232052 89.2173748968714 4.60000000021688
    vertex 260.445564570056 89.0244301329535 4.60000000022096
  endloop
endfacet
facet normal 1.48749728894815e-010 -7.70295802341176e-010 -1.0
  outer loop
    vertex 260.445564568154 50.1230115669976 4.60000004372543
    vertex 260.445564570056 89.0244301329535 4.60000000022096
    vertex 260.572699466232 50.2886969919468 4.600000043693
  endloop
endfacet
facet normal 1.48749728894815e-010 -7.70295802341176e-010 -1.0
  outer loop
    vertex 260.572699466232 50.2886969919468 4.600000043693
    vertex 260.445564570056 89.0244301329535 4.60000000022096
    vertex 260.572699468134 88.8587447080043 4.60000000022821
  endloop
endfacet
facet normal 1.48749728894815e-010 -7.70295802341176e-010 -1.0
  outer loop
    vertex 260.572699466232 50.2886969919468 4.600000043693
    vertex 260.572699468134 88.8587447080043 4.60000000022821
    vertex 260.738384891181 50.4158318900252 4.60000004366269
  endloop
endfacet
facet normal 1.48749728894815e-010 -7.70295802341176e-010 -1.0
  outer loop
    vertex 260.738384891181 50.4158318900252 4.60000004366269
    vertex 260.572699468134 88.8587447080043 4.60000000022821
    vertex 260.738384893083 88.7316098099259 4.60000000023815
  endloop
endfacet
facet normal 1.48749728894815e-010 -7.70295802341176e-010 -1.0
  outer loop
    vertex 260.738384891181 50.4158318900252 4.60000004366269
    vertex 260.738384893083 88.7316098099259 4.60000000023815
    vertex 260.931329655099 50.4957522280288 4.60000004363656
  endloop
endfacet
facet normal 1.48749728894815e-010 -7.70295802341176e-010 -1.0
  outer loop
    vertex 260.931329655099 50.4957522280288 4.60000004363656
    vertex 260.738384893083 88.7316098099259 4.60000000023815
    vertex 260.931329657001 88.6516894719222 4.60000000025008
  endloop
endfacet
facet normal 1.48749728894815e-010 -7.70295802341176e-010 -1.0
  outer loop
    vertex 260.931329655099 50.4957522280288 4.60000004363656
    vertex 260.931329657001 88.6516894719222 4.60000000025008
    vertex 261.138384891181 50.5230115669976 4.60000004361638
  endloop
endfacet
facet normal 1.48749728894815e-010 -7.70295802341176e-010 -1.0
  outer loop
    vertex 261.138384891181 50.5230115669976 4.60000004361638
    vertex 260.931329657001 88.6516894719222 4.60000000025008
    vertex 261.138384893083 88.6244301329535 4.60000000026319
  endloop
endfacet
facet normal 1.48749728894815e-010 -7.70295802341176e-010 -1.0
  outer loop
    vertex 261.138384891181 50.5230115669976 4.60000004361638
    vertex 261.138384893083 88.6244301329535 4.60000000026319
    vertex 261.345440127263 50.4957522280288 4.60000004360354
  endloop
endfacet
facet normal 1.48749728894815e-010 -7.70295802341176e-010 -1.0
  outer loop
    vertex 261.345440127263 50.4957522280288 4.60000004360354
    vertex 261.138384893083 88.6244301329535 4.60000000026319
    vertex 261.345440129165 88.6516894719222 4.6000000002766
  endloop
endfacet
facet normal 1.48749728894815e-010 -7.70295802341176e-010 -1.0
  outer loop
    vertex 261.345440127263 50.4957522280288 4.60000004360354
    vertex 261.345440129165 88.6516894719222 4.6000000002766
    vertex 261.538384891181 50.4158318900252 4.60000004359891
  endloop
endfacet
facet normal 1.48749728894815e-010 -7.70295802341176e-010 -1.0
  outer loop
    vertex 261.538384891181 50.4158318900252 4.60000004359891
    vertex 261.345440129165 88.6516894719222 4.6000000002766
    vertex 261.538384893083 88.7316098099259 4.60000000028938
  endloop
endfacet
facet normal 1.48749728894815e-010 -7.70295802341176e-010 -1.0
  outer loop
    vertex 261.538384891181 50.4158318900252 4.60000004359891
    vertex 261.538384893083 88.7316098099259 4.60000000028938
    vertex 261.704070316131 50.2886969919468 4.6000000436028
  endloop
endfacet
facet normal 1.48749728894815e-010 -7.70295802341176e-010 -1.0
  outer loop
    vertex 261.704070316131 50.2886969919468 4.6000000436028
    vertex 261.538384893083 88.7316098099259 4.60000000028938
    vertex 261.704070318033 88.8587447080043 4.60000000030067
  endloop
endfacet
facet normal 1.48749728894815e-010 -7.70295802341176e-010 -1.0
  outer loop
    vertex 261.704070316131 50.2886969919468 4.6000000436028
    vertex 261.704070318033 88.8587447080043 4.60000000030067
    vertex 261.831205214209 50.1230115669976 4.60000004361495
  endloop
endfacet
facet normal 1.48749728894815e-010 -7.70295802341176e-010 -1.0
  outer loop
    vertex 261.831205214209 50.1230115669976 4.60000004361495
    vertex 261.704070318033 88.8587447080043 4.60000000030067
    vertex 261.831205216111 89.0244301329535 4.6000000003097
  endloop
endfacet
facet normal 1.48749728894815e-010 -7.70295802341176e-010 -1.0
  outer loop
    vertex 261.831205214209 50.1230115669976 4.60000004361495
    vertex 261.831205216111 89.0244301329535 4.6000000003097
    vertex 261.911125552213 49.9300668030796 4.60000004363454
  endloop
endfacet
facet normal 1.48749728894815e-010 -7.70295802341176e-010 -1.0
  outer loop
    vertex 261.911125552213 49.9300668030796 4.60000004363454
    vertex 261.831205216111 89.0244301329535 4.6000000003097
    vertex 261.911125554115 89.2173748968714 4.60000000031584
  endloop
endfacet
facet normal 1.48749728894815e-010 -7.70295802341176e-010 -1.0
  outer loop
    vertex 261.911125552213 49.9300668030796 4.60000004363454
    vertex 261.911125554115 89.2173748968714 4.60000000031584
    vertex 261.938384891181 49.7230115669976 4.60000004366022
  endloop
endfacet
facet normal 1.48749728894815e-010 -7.70295802341176e-010 -1.0
  outer loop
    vertex 261.938384891181 49.7230115669976 4.60000004366022
    vertex 261.911125554115 89.2173748968714 4.60000000031584
    vertex 261.938384893083 89.4244301329535 4.6000000003187
  endloop
endfacet
facet normal 1.48749728894815e-010 -7.70295802341176e-010 -1.0
  outer loop
    vertex 258.638384893084 91.2751394184093 4.60000000000025
    vertex 260.338384893083 89.4244301329535 4.60000000021623
    vertex 260.338384891181 49.7230115669976 4.60000004378778
  endloop
endfacet
facet normal 1.48749728894815e-010 -7.70295802341176e-010 -1.0
  outer loop
    vertex 260.338384893083 89.4244301329535 4.60000000021623
    vertex 258.638384893084 91.2751394184093 4.60000000000025
    vertex 260.365644232052 89.6314853690355 4.60000000021909
  endloop
endfacet
facet normal 1.48749728894815e-010 -7.70295802341176e-010 -1.0
  outer loop
    vertex 260.365644232052 89.6314853690355 4.60000000021909
    vertex 258.638384893084 91.2751394184093 4.60000000000025
    vertex 260.445564570056 89.8244301329535 4.60000000022523
  endloop
endfacet
facet normal 1.48749728894815e-010 -7.70295802341176e-010 -1.0
  outer loop
    vertex 260.445564570056 89.8244301329535 4.60000000022523
    vertex 258.638384893084 91.2751394184093 4.60000000000025
    vertex 260.572699468134 89.9901155579027 4.60000000023426
  endloop
endfacet
facet normal 1.48749728894815e-010 -7.70295802341176e-010 -1.0
  outer loop
    vertex 260.572699468134 89.9901155579027 4.60000000023426
    vertex 258.638384893084 91.2751394184093 4.60000000000025
    vertex 260.738384893083 90.117250455981 4.60000000024555
  endloop
endfacet
facet normal 1.48749728894815e-010 -7.70295802341176e-010 -1.0
  outer loop
    vertex 260.738384893083 90.117250455981 4.60000000024555
    vertex 258.638384893084 91.2751394184093 4.60000000000025
    vertex 260.931329657001 90.1971707939848 4.60000000025833
  endloop
endfacet
facet normal 1.48749728894815e-010 -7.70295802341176e-010 -1.0
  outer loop
    vertex 260.931329657001 90.1971707939848 4.60000000025833
    vertex 258.638384893084 91.2751394184093 4.60000000000025
    vertex 261.138384893083 90.2244301329535 4.60000000027173
  endloop
endfacet
facet normal 1.48749728894815e-010 -7.70295802341176e-010 -1.0
  outer loop
    vertex 261.138384893083 90.2244301329535 4.60000000027173
    vertex 258.638384893084 91.2751394184093 4.60000000000025
    vertex 289.638384976693 91.2751393885868 4.60000001676363
  endloop
endfacet
facet normal 1.48749728894815e-010 -7.70295802341176e-010 -1.0
  outer loop
    vertex 261.138384893083 90.2244301329535 4.60000000027173
    vertex 289.638384976693 91.2751393885868 4.60000001676363
    vertex 261.345440129165 90.1971707939848 4.60000000028485
  endloop
endfacet
facet normal 1.48749728894815e-010 -7.70295802341176e-010 -1.0
  outer loop
    vertex 261.345440129165 90.1971707939848 4.60000000028485
    vertex 289.638384976693 91.2751393885868 4.60000001676363
    vertex 261.538384893083 90.117250455981 4.60000000029678
  endloop
endfacet
facet normal 1.48749728894815e-010 -7.70295802341176e-010 -1.0
  outer loop
    vertex 261.538384893083 90.117250455981 4.60000000029678
    vertex 289.638384976693 91.2751393885868 4.60000001676363
    vertex 261.704070318033 89.9901155579027 4.60000000030671
  endloop
endfacet
facet normal 1.48749728894815e-010 -7.70295802341176e-010 -1.0
  outer loop
    vertex 261.704070318033 89.9901155579027 4.60000000030671
    vertex 289.638384976693 91.2751393885868 4.60000001676363
    vertex 261.831205216111 89.8244301329535 4.60000000031397
  endloop
endfacet
facet normal 1.48749728894815e-010 -7.70295802341176e-010 -1.0
  outer loop
    vertex 261.831205216111 89.8244301329535 4.60000000031397
    vertex 289.638384976693 91.2751393885868 4.60000001676363
    vertex 261.911125554115 89.6314853690355 4.60000000031806
  endloop
endfacet
facet normal 1.48749728894815e-010 -7.70295802341176e-010 -1.0
  outer loop
    vertex 261.911125554115 89.6314853690355 4.60000000031806
    vertex 289.638384976693 91.2751393885868 4.60000001676363
    vertex 261.938384893083 89.4244301329535 4.6000000003187
  endloop
endfacet
facet normal 1.48749728894815e-010 -7.70295802341176e-010 -1.0
  outer loop
    vertex 261.938384893083 89.4244301329535 4.6000000003187
    vertex 289.638384976693 91.2751393885868 4.60000001676363
    vertex 289.638384975742 47.8723022723686 4.60000003874478
  endloop
endfacet
facet normal 1.48749728894815e-010 -7.70295802341176e-010 -1.0
  outer loop
    vertex 258.638384891182 47.8723022854473 4.60000004372775
    vertex 261.138384891181 48.9230115669976 4.60000004383162
    vertex 289.638384975742 47.8723022723686 4.60000003874478
  endloop
endfacet
facet normal 1.48749728894815e-010 -7.70295802341176e-010 -1.0
  outer loop
    vertex 261.138384891181 48.9230115669976 4.60000004383162
    vertex 258.638384891182 47.8723022854473 4.60000004372775
    vertex 260.931329655099 48.9502709059663 4.60000004384446
  endloop
endfacet
facet normal 1.48749728894815e-010 -7.70295802341176e-010 -1.0
  outer loop
    vertex 260.931329655099 48.9502709059663 4.60000004384446
    vertex 258.638384891182 47.8723022854473 4.60000004372775
    vertex 260.738384891181 49.03019124397 4.60000004384909
  endloop
endfacet
facet normal 1.48749728894815e-010 -7.70295802341176e-010 -1.0
  outer loop
    vertex 260.738384891181 49.03019124397 4.60000004384909
    vertex 258.638384891182 47.8723022854473 4.60000004372775
    vertex 260.572699466232 49.1573261420484 4.6000000438452
  endloop
endfacet
facet normal 1.48749728894815e-010 -7.70295802341176e-010 -1.0
  outer loop
    vertex 260.572699466232 49.1573261420484 4.6000000438452
    vertex 258.638384891182 47.8723022854473 4.60000004372775
    vertex 260.445564568154 49.3230115669976 4.60000004383304
  endloop
endfacet
facet normal 1.48749728894815e-010 -7.70295802341176e-010 -1.0
  outer loop
    vertex 260.445564568154 49.3230115669976 4.60000004383304
    vertex 258.638384891182 47.8723022854473 4.60000004372775
    vertex 260.36564423015 49.5159563309156 4.60000004381346
  endloop
endfacet
facet normal 1.48749728894815e-010 -7.70295802341176e-010 -1.0
  outer loop
    vertex 260.36564423015 49.5159563309156 4.60000004381346
    vertex 258.638384891182 47.8723022854473 4.60000004372775
    vertex 260.338384891181 49.7230115669976 4.60000004378778
  endloop
endfacet
facet normal 1.48749728894815e-010 -7.70295802341176e-010 -1.0
  outer loop
    vertex 260.338384891181 49.7230115669976 4.60000004378778
    vertex 258.638384891182 47.8723022854473 4.60000004372775
    vertex 258.638384893084 91.2751394184093 4.60000000000025
  endloop
endfacet
facet normal 1.48749728894815e-010 -7.70295802341176e-010 -1.0
  outer loop
    vertex 289.638384975742 47.8723022723686 4.60000003874478
    vertex 261.138384891181 48.9230115669976 4.60000004383162
    vertex 261.345440127263 48.9502709059663 4.60000004381144
  endloop
endfacet
facet normal 1.48749728894815e-010 -7.70295802341176e-010 -1.0
  outer loop
    vertex 289.638384975742 47.8723022723686 4.60000003874478
    vertex 261.345440127263 48.9502709059663 4.60000004381144
    vertex 261.538384891181 49.03019124397 4.60000004378531
  endloop
endfacet
facet normal 1.48749728894815e-010 -7.70295802341176e-010 -1.0
  outer loop
    vertex 289.638384975742 47.8723022723686 4.60000003874478
    vertex 261.538384891181 49.03019124397 4.60000004378531
    vertex 261.704070316131 49.1573261420484 4.600000043755
  endloop
endfacet
facet normal 1.48749728894815e-010 -7.70295802341176e-010 -1.0
  outer loop
    vertex 289.638384975742 47.8723022723686 4.60000003874478
    vertex 261.704070316131 49.1573261420484 4.600000043755
    vertex 261.831205214209 49.3230115669976 4.60000004372257
  endloop
endfacet
facet normal 1.48749728894815e-010 -7.70295802341176e-010 -1.0
  outer loop
    vertex 289.638384975742 47.8723022723686 4.60000003874478
    vertex 261.831205214209 49.3230115669976 4.60000004372257
    vertex 261.911125552213 49.5159563309156 4.60000004369025
  endloop
endfacet
facet normal 1.48749728894815e-010 -7.70295802341176e-010 -1.0
  outer loop
    vertex 289.638384975742 47.8723022723686 4.60000003874478
    vertex 261.911125552213 49.5159563309156 4.60000004369025
    vertex 261.938384891181 49.7230115669976 4.60000004366022
  endloop
endfacet
facet normal 1.48749728894815e-010 -7.70295802341176e-010 -1.0
  outer loop
    vertex 289.638384975742 47.8723022723686 4.60000003874478
    vertex 261.938384891181 49.7230115669976 4.60000004366022
    vertex 261.938384893083 89.4244301329535 4.6000000003187
  endloop
endfacet
facet normal 0.608761428992844 0.793353340303418 -6.12960678357634e-010
  outer loop
    vertex 260.572699467829 88.8587447100747 6.80000000022821
    vertex 260.738384893083 88.7316098099259 4.60000000023815
    vertex 260.572699468134 88.8587447080043 4.60000000022821
  endloop
endfacet
facet normal 0.608761428992844 0.793353340303418 -6.12960678357634e-010
  outer loop
    vertex 260.738384893083 88.7316098099259 4.60000000023815
    vertex 260.572699467829 88.8587447100747 6.80000000022821
    vertex 260.738384892778 88.7316098119964 6.80000000023815
  endloop
endfacet
facet normal 0.608761428992844 0.793353340303418 -6.12960678357634e-010
  outer loop
    vertex 260.738384892778 88.7316098119964 6.80000000023815
    vertex 260.572699467829 88.8587447100747 6.80000000022821
    vertex 260.638384893095 88.8083425105509 6.80000000071754
  endloop
endfacet
facet normal 0.382683432365175 0.923879532511251 -7.70299040945072e-010
  outer loop
    vertex 260.738384892778 88.7316098119964 6.80000000023815
    vertex 260.931329657001 88.6516894719222 4.60000000025008
    vertex 260.738384893083 88.7316098099259 4.60000000023815
  endloop
endfacet
facet normal 0.382683432365175 0.923879532511251 -7.70299040945072e-010
  outer loop
    vertex 260.931329657001 88.6516894719222 4.60000000025008
    vertex 260.738384892778 88.7316098119964 6.80000000023815
    vertex 260.931329656696 88.6516894739926 6.80000000025008
  endloop
endfacet
facet normal -0.793353340291244 -0.60876142900871 4.1264714762433e-010
  outer loop
    vertex 261.831205213824 50.1230115690358 6.80000004361495
    vertex 261.704070316131 50.2886969919468 4.6000000436028
    vertex 261.831205214209 50.1230115669976 4.60000004361495
  endloop
endfacet
facet normal -0.793353340291244 -0.60876142900871 4.1264714762433e-010
  outer loop
    vertex 261.704070316131 50.2886969919468 4.6000000436028
    vertex 261.831205213824 50.1230115690358 6.80000004361495
    vertex 261.704070315746 50.288696993985 6.8000000436028
  endloop
endfacet
facet normal -0.923879532511251 0.382683432365175 -4.77844414525929e-010
  outer loop
    vertex 261.831205215805 89.0244301350239 6.8000000003097
    vertex 261.911125554115 89.2173748968714 4.60000000031584
    vertex 261.831205216111 89.0244301329535 4.6000000003097
  endloop
endfacet
facet normal -0.923879532511251 0.382683432365175 -4.77844414525929e-010
  outer loop
    vertex 261.911125554115 89.2173748968714 4.60000000031584
    vertex 261.831205215805 89.0244301350239 6.8000000003097
    vertex 261.911125553809 89.2173748989419 6.80000000031585
  endloop
endfacet
facet normal -0.130526192201709 -0.991444861376225 8.59319892543023e-010
  outer loop
    vertex 261.345440129165 90.1971707939848 4.60000000028485
    vertex 261.138384892778 90.2244301350239 6.80000000027173
    vertex 261.138384893083 90.2244301329535 4.60000000027173
  endloop
endfacet
facet normal -0.130526192201709 -0.991444861376225 8.59319892543023e-010
  outer loop
    vertex 261.138384892778 90.2244301350239 6.80000000027173
    vertex 261.345440129165 90.1971707939848 4.60000000028485
    vertex 261.34544012886 90.1971707960552 6.80000000028485
  endloop
endfacet
facet normal -0.130526192201709 -0.991444861376225 8.59319892543023e-010
  outer loop
    vertex 261.138384892778 90.2244301350239 6.80000000027173
    vertex 261.34544012886 90.1971707960552 6.80000000028485
    vertex 261.224619867805 90.2130770851822 6.8000000115727
  endloop
endfacet
facet normal 0.382683432365175 -0.923879532511251 8.82570700237175e-010
  outer loop
    vertex 260.931329657001 90.1971707939848 4.60000000025833
    vertex 260.738384892778 90.1172504580514 6.80000000024555
    vertex 260.738384893083 90.117250455981 4.60000000024555
  endloop
endfacet
facet normal 0.382683432365175 -0.923879532511251 8.82570700237175e-010
  outer loop
    vertex 260.738384892778 90.1172504580514 6.80000000024555
    vertex 260.931329657001 90.1971707939848 4.60000000025833
    vertex 260.931329656696 90.1971707960552 6.80000000025833
  endloop
endfacet
facet normal -0.608761429008657 -0.793353340291284 6.20376500476499e-010
  outer loop
    vertex 261.704070318033 89.9901155579027 4.60000000030671
    vertex 261.538384892778 90.1172504580514 6.80000000029678
    vertex 261.538384893083 90.117250455981 4.60000000029678
  endloop
endfacet
facet normal -0.608761429008657 -0.793353340291284 6.20376500476499e-010
  outer loop
    vertex 261.538384892778 90.1172504580514 6.80000000029678
    vertex 261.704070318033 89.9901155579027 4.60000000030671
    vertex 261.704070317727 89.9901155599731 6.80000000030671
  endloop
endfacet
facet normal 0.923879532511259 -0.382683432365156 4.89317175099014e-010
  outer loop
    vertex 260.445564568154 50.1230115669976 4.60000004372543
    vertex 260.365644229765 49.9300668051178 6.80000004375776
    vertex 260.36564423015 49.9300668030796 4.60000004375776
  endloop
endfacet
facet normal 0.923879532511259 -0.382683432365156 4.89317175099014e-010
  outer loop
    vertex 260.365644229765 49.9300668051178 6.80000004375776
    vertex 260.445564568154 50.1230115669976 4.60000004372543
    vertex 260.445564567769 50.1230115690358 6.80000004372543
  endloop
endfacet
facet normal 0.99144486137383 -0.130526192219903 2.76202696598578e-010
  outer loop
    vertex 260.36564423015 49.9300668030796 4.60000004375776
    vertex 260.338384890796 49.7230115690358 6.80000004378778
    vertex 260.338384891181 49.7230115669976 4.60000004378778
  endloop
endfacet
facet normal 0.99144486137383 -0.130526192219903 2.76202696598578e-010
  outer loop
    vertex 260.338384890796 49.7230115690358 6.80000004378778
    vertex 260.36564423015 49.9300668030796 4.60000004375776
    vertex 260.365644229765 49.9300668051178 6.80000004375776
  endloop
endfacet
facet normal 0.99144486137383 0.130526192219903 4.426545998581e-011
  outer loop
    vertex 260.338384891181 49.7230115669976 4.60000004378778
    vertex 260.365644229765 49.5159563329538 6.80000004381346
    vertex 260.36564423015 49.5159563309156 4.60000004381346
  endloop
endfacet
facet normal 0.99144486137383 0.130526192219903 4.426545998581e-011
  outer loop
    vertex 260.365644229765 49.5159563329538 6.80000004381346
    vertex 260.338384891181 49.7230115669976 4.60000004378778
    vertex 260.338384890796 49.7230115690358 6.80000004378778
  endloop
endfacet
facet normal 0.382683432365083 -0.92387953251129 8.82687378248024e-010
  outer loop
    vertex 260.931329654714 50.4957522300671 6.80000004363656
    vertex 260.738384891181 50.4158318900252 4.60000004366269
    vertex 260.931329655099 50.4957522280288 4.60000004363656
  endloop
endfacet
facet normal 0.382683432365083 -0.92387953251129 8.82687378248024e-010
  outer loop
    vertex 260.738384891181 50.4158318900252 4.60000004366269
    vertex 260.931329654714 50.4957522300671 6.80000004363656
    vertex 260.738384890796 50.4158318920634 6.80000004366269
  endloop
endfacet
facet normal 0.130526192219897 -0.991444861373831 9.06020742450566e-010
  outer loop
    vertex 261.138384893083 90.2244301329535 4.60000000027173
    vertex 260.931329656696 90.1971707960552 6.80000000025833
    vertex 260.931329657001 90.1971707939848 4.60000000025833
  endloop
endfacet
facet normal 0.130526192219897 -0.991444861373831 9.06020742450566e-010
  outer loop
    vertex 260.931329656696 90.1971707960552 6.80000000025833
    vertex 261.138384893083 90.2244301329535 4.60000000027173
    vertex 261.138384892778 90.2244301350239 6.80000000027173
  endloop
endfacet
facet normal -0.923879532511259 -0.382683432365156 1.90688393689909e-010
  outer loop
    vertex 261.911125551828 49.9300668051178 6.80000004363454
    vertex 261.831205214209 50.1230115669976 4.60000004361495
    vertex 261.911125552213 49.9300668030796 4.60000004363454
  endloop
endfacet
facet normal -0.923879532511259 -0.382683432365156 1.90688393689909e-010
  outer loop
    vertex 261.831205214209 50.1230115669976 4.60000004361495
    vertex 261.911125551828 49.9300668051178 6.80000004363454
    vertex 261.831205213824 50.1230115690358 6.80000004361495
  endloop
endfacet
facet normal -0.99144486137383 -0.130526192219903 -4.42654593341112e-011
  outer loop
    vertex 261.938384890796 49.7230115690358 6.80000004366022
    vertex 261.911125552213 49.9300668030796 4.60000004363454
    vertex 261.938384891181 49.7230115669976 4.60000004366022
  endloop
endfacet
facet normal -0.99144486137383 -0.130526192219903 -4.42654593341112e-011
  outer loop
    vertex 261.911125552213 49.9300668030796 4.60000004363454
    vertex 261.938384890796 49.7230115690358 6.80000004366022
    vertex 261.911125551828 49.9300668051178 6.80000004363454
  endloop
endfacet
facet normal 0.608761429000288 0.793353340297706 -6.02569531243489e-010
  outer loop
    vertex 260.572699465847 49.1573261440866 6.8000000438452
    vertex 260.738384891181 49.03019124397 4.60000004384909
    vertex 260.572699466232 49.1573261420484 4.6000000438452
  endloop
endfacet
facet normal 0.608761429000288 0.793353340297706 -6.02569531243489e-010
  outer loop
    vertex 260.738384891181 49.03019124397 4.60000004384909
    vertex 260.572699465847 49.1573261440866 6.8000000438452
    vertex 260.638384890796 49.1069239448064 6.80000004378272
  endloop
endfacet
facet normal 0.608761429000288 0.793353340297706 -6.02569531243489e-010
  outer loop
    vertex 260.738384890796 49.0301912460083 6.80000004384909
    vertex 260.738384891181 49.03019124397 4.60000004384909
    vertex 260.638384890796 49.1069239448064 6.80000004378272
  endloop
endfacet
facet normal -0.793353340291204 0.608761429008762 -6.60930321053113e-010
  outer loop
    vertex 261.704070317727 88.8587447100747 6.80000000030067
    vertex 261.831205216111 89.0244301329535 4.6000000003097
    vertex 261.704070318033 88.8587447080043 4.60000000030067
  endloop
endfacet
facet normal -0.793353340291204 0.608761429008762 -6.60930321053113e-010
  outer loop
    vertex 261.831205216111 89.0244301329535 4.6000000003097
    vertex 261.704070317727 88.8587447100747 6.80000000030067
    vertex 261.831205215805 89.0244301350239 6.8000000003097
  endloop
endfacet
facet normal 0.793353340291284 -0.608761429008657 6.6093032007511e-010
  outer loop
    vertex 260.572699468134 89.9901155579027 4.60000000023426
    vertex 260.44556456975 89.8244301350239 6.80000000022523
    vertex 260.445564570056 89.8244301329535 4.60000000022523
  endloop
endfacet
facet normal 0.793353340291284 -0.608761429008657 6.6093032007511e-010
  outer loop
    vertex 260.44556456975 89.8244301350239 6.80000000022523
    vertex 260.572699468134 89.9901155579027 4.60000000023426
    vertex 260.572699467829 89.9901155599731 6.80000000023426
  endloop
endfacet
facet normal 0.130526192220056 0.99144486137381 -8.59773888051446e-010
  outer loop
    vertex 260.931329655099 48.9502709059663 4.60000004384446
    vertex 261.138384890796 48.9230115690358 6.80000004383162
    vertex 261.138384891181 48.9230115669976 4.60000004383162
  endloop
endfacet
facet normal 0.130526192220056 0.99144486137381 -8.59773888051446e-010
  outer loop
    vertex 261.138384890796 48.9230115690358 6.80000004383162
    vertex 260.931329655099 48.9502709059663 4.60000004384446
    vertex 260.931329654714 48.9502709080046 6.80000004384446
  endloop
endfacet
facet normal 0.608761429023283 -0.793353340280061 7.96458750328896e-010
  outer loop
    vertex 260.738384890796 50.4158318920634 6.80000004366269
    vertex 260.572699466232 50.2886969919468 4.600000043693
    vertex 260.738384891181 50.4158318900252 4.60000004366269
  endloop
endfacet
facet normal 0.608761429023283 -0.793353340280061 7.96458750328896e-010
  outer loop
    vertex 260.572699466232 50.2886969919468 4.600000043693
    vertex 260.738384890796 50.4158318920634 6.80000004366269
    vertex 260.572699465847 50.288696993985 6.800000043693
  endloop
endfacet
facet normal 0.608761429023283 -0.793353340280061 7.96458750328896e-010
  outer loop
    vertex 260.572699465847 50.288696993985 6.800000043693
    vertex 260.738384890796 50.4158318920634 6.80000004366269
    vertex 260.638384890796 50.3390991932652 6.80000004373884
  endloop
endfacet
facet normal -0.130526192235236 0.991444861371811 -8.9494753592125e-010
  outer loop
    vertex 261.138384890796 48.9230115690358 6.80000004383162
    vertex 261.224619867725 48.9343646191279 6.80000004331122
    vertex 261.138384891181 48.9230115669976 4.60000004383162
  endloop
endfacet
facet normal -0.130526192235236 0.991444861371811 -8.9494753592125e-010
  outer loop
    vertex 261.138384891181 48.9230115669976 4.60000004383162
    vertex 261.345440126878 48.9502709080046 6.80000004381144
    vertex 261.345440127263 48.9502709059663 4.60000004381144
  endloop
endfacet
facet normal -0.130526192235236 0.991444861371811 -8.9494753592125e-010
  outer loop
    vertex 261.345440126878 48.9502709080046 6.80000004381144
    vertex 261.138384891181 48.9230115669976 4.60000004383162
    vertex 261.224619867725 48.9343646191279 6.80000004331122
  endloop
endfacet
facet normal 0.793353340291244 -0.60876142900871 6.69085494800886e-010
  outer loop
    vertex 260.572699466232 50.2886969919468 4.600000043693
    vertex 260.445564567769 50.1230115690358 6.80000004372543
    vertex 260.445564568154 50.1230115669976 4.60000004372543
  endloop
endfacet
facet normal 0.793353340291244 -0.60876142900871 6.69085494800886e-010
  outer loop
    vertex 260.445564567769 50.1230115690358 6.80000004372543
    vertex 260.572699466232 50.2886969919468 4.600000043693
    vertex 260.572699465847 50.288696993985 6.800000043693
  endloop
endfacet
facet normal -0.923879532511251 -0.382683432365175 2.06796649438429e-010
  outer loop
    vertex 261.911125553809 89.6314853711059 6.80000000031806
    vertex 261.831205216111 89.8244301329535 4.60000000031397
    vertex 261.911125554115 89.6314853690355 4.60000000031806
  endloop
endfacet
facet normal -0.923879532511251 -0.382683432365175 2.06796649438429e-010
  outer loop
    vertex 261.831205216111 89.8244301329535 4.60000000031397
    vertex 261.911125553809 89.6314853711059 6.80000000031806
    vertex 261.831205215805 89.8244301350239 6.80000000031397
  endloop
endfacet
facet normal 0.923879532511251 -0.382683432365175 4.77844412817709e-010
  outer loop
    vertex 260.445564570056 89.8244301329535 4.60000000022523
    vertex 260.365644231747 89.6314853711059 6.80000000021909
    vertex 260.365644232052 89.6314853690355 4.60000000021909
  endloop
endfacet
facet normal 0.923879532511251 -0.382683432365175 4.77844412817709e-010
  outer loop
    vertex 260.365644231747 89.6314853711059 6.80000000021909
    vertex 260.445564570056 89.8244301329535 4.60000000022523
    vertex 260.44556456975 89.8244301350239 6.80000000022523
  endloop
endfacet
facet normal -0.793353340291244 0.60876142900871 -6.69085494800886e-010
  outer loop
    vertex 261.704070315746 49.1573261440866 6.800000043755
    vertex 261.831205214209 49.3230115669976 4.60000004372257
    vertex 261.704070316131 49.1573261420484 4.600000043755
  endloop
endfacet
facet normal -0.793353340291244 0.60876142900871 -6.69085494800886e-010
  outer loop
    vertex 261.831205214209 49.3230115669976 4.60000004372257
    vertex 261.704070315746 49.1573261440866 6.800000043755
    vertex 261.831205213824 49.3230115690358 6.80000004372257
  endloop
endfacet
facet normal -0.608761429008657 0.793353340291284 -7.9897492087436e-010
  outer loop
    vertex 261.538384892778 88.7316098119964 6.80000000028938
    vertex 261.704070318033 88.8587447080043 4.60000000030067
    vertex 261.538384893083 88.7316098099259 4.60000000028938
  endloop
endfacet
facet normal -0.608761429008657 0.793353340291284 -7.9897492087436e-010
  outer loop
    vertex 261.704070318033 88.8587447080043 4.60000000030067
    vertex 261.538384892778 88.7316098119964 6.80000000028938
    vertex 261.704070317727 88.8587447100747 6.80000000030067
  endloop
endfacet
facet normal -0.991444861373831 0.130526192219896 -2.62194196832082e-010
  outer loop
    vertex 261.911125553809 89.2173748989419 6.80000000031585
    vertex 261.938384893083 89.4244301329535 4.6000000003187
    vertex 261.911125554115 89.2173748968714 4.60000000031584
  endloop
endfacet
facet normal -0.991444861373831 0.130526192219896 -2.62194196832082e-010
  outer loop
    vertex 261.938384893083 89.4244301329535 4.6000000003187
    vertex 261.911125553809 89.2173748989419 6.80000000031585
    vertex 261.938384892778 89.4244301350239 6.8000000003187
  endloop
endfacet
facet normal -0.382683432365175 0.923879532511251 -8.82570700237175e-010
  outer loop
    vertex 261.34544012886 88.6516894739926 6.8000000002766
    vertex 261.538384893083 88.7316098099259 4.60000000028938
    vertex 261.345440129165 88.6516894719222 4.6000000002766
  endloop
endfacet
facet normal -0.382683432365175 0.923879532511251 -8.82570700237175e-010
  outer loop
    vertex 261.538384893083 88.7316098099259 4.60000000028938
    vertex 261.34544012886 88.6516894739926 6.8000000002766
    vertex 261.538384892778 88.7316098119964 6.80000000028938
  endloop
endfacet
facet normal -9.46665323864838e-011 -1.0 4.70369790544721e-010
  outer loop
    vertex 343.638385223891 47.8723022730037 -5.07999992880517
    vertex 289.638384975742 47.8723022723686 4.60000003874478
    vertex 321.63838506431 47.8723022648769 -5.07999996421193
  endloop
endfacet
facet normal -9.46665323864838e-011 -1.0 4.70369790544721e-010
  outer loop
    vertex 289.638384975742 47.8723022723686 4.60000003874478
    vertex 343.638385223891 47.8723022730037 -5.07999992880517
    vertex 343.63838521598 47.8723022749594 7.00000003874478
  endloop
endfacet
facet normal -9.46665323864838e-011 -1.0 4.70369790544721e-010
  outer loop
    vertex 289.638384975742 47.8723022723686 4.60000003874478
    vertex 343.63838521598 47.8723022749594 7.00000003874478
    vertex 258.638384891182 47.8723022854473 4.60000004372775
  endloop
endfacet
facet normal -9.46665323864838e-011 -1.0 4.70369790544721e-010
  outer loop
    vertex 258.638384891182 47.8723022854473 4.60000004372775
    vertex 343.63838521598 47.8723022749594 7.00000003874478
    vertex 258.638384890817 47.8723022875154 7.00000004372775
  endloop
endfacet
facet normal 0.923879532511259 0.382683432365156 -1.90688393642007e-010
  outer loop
    vertex 260.36564423015 49.5159563309156 4.60000004381346
    vertex 260.445564567769 49.3230115690358 6.80000004383304
    vertex 260.445564568154 49.3230115669976 4.60000004383304
  endloop
endfacet
facet normal 0.923879532511259 0.382683432365156 -1.90688393642007e-010
  outer loop
    vertex 260.445564567769 49.3230115690358 6.80000004383304
    vertex 260.36564423015 49.5159563309156 4.60000004381346
    vertex 260.365644229765 49.5159563329538 6.80000004381346
  endloop
endfacet
facet normal -0.793353340291284 -0.608761429008657 4.28176332950064e-010
  outer loop
    vertex 261.831205215805 89.8244301350239 6.80000000031397
    vertex 261.704070318033 89.9901155579027 4.60000000030671
    vertex 261.831205216111 89.8244301329535 4.60000000031397
  endloop
endfacet
facet normal -0.793353340291284 -0.608761429008657 4.28176332950064e-010
  outer loop
    vertex 261.704070318033 89.9901155579027 4.60000000030671
    vertex 261.831205215805 89.8244301350239 6.80000000031397
    vertex 261.704070317727 89.9901155599731 6.80000000030671
  endloop
endfacet
facet normal -0.991444861373831 -0.130526192219896 -2.86758805919038e-011
  outer loop
    vertex 261.938384892778 89.4244301350239 6.8000000003187
    vertex 261.911125554115 89.6314853690355 4.60000000031806
    vertex 261.938384893083 89.4244301329535 4.6000000003187
  endloop
endfacet
facet normal -0.991444861373831 -0.130526192219896 -2.86758805919038e-011
  outer loop
    vertex 261.911125554115 89.6314853690355 4.60000000031806
    vertex 261.938384892778 89.4244301350239 6.8000000003187
    vertex 261.911125553809 89.6314853711059 6.80000000031806
  endloop
endfacet
facet normal 0.793353340291244 0.60876142900871 -4.12647148074521e-010
  outer loop
    vertex 260.445564568154 49.3230115669976 4.60000004383304
    vertex 260.572699465847 49.1573261440866 6.8000000438452
    vertex 260.572699466232 49.1573261420484 4.6000000438452
  endloop
endfacet
facet normal 0.793353340291244 0.60876142900871 -4.12647148074521e-010
  outer loop
    vertex 260.572699465847 49.1573261440866 6.8000000438452
    vertex 260.445564568154 49.3230115669976 4.60000004383304
    vertex 260.445564567769 49.3230115690358 6.80000004383304
  endloop
endfacet
facet normal -0.99144486137383 0.130526192219904 -2.76202696437686e-010
  outer loop
    vertex 261.911125551828 49.5159563329538 6.80000004369025
    vertex 261.938384891181 49.7230115669976 4.60000004366022
    vertex 261.911125552213 49.5159563309156 4.60000004369025
  endloop
endfacet
facet normal -0.99144486137383 0.130526192219904 -2.76202696437686e-010
  outer loop
    vertex 261.938384891181 49.7230115669976 4.60000004366022
    vertex 261.911125551828 49.5159563329538 6.80000004369025
    vertex 261.938384890796 49.7230115690358 6.80000004366022
  endloop
endfacet
facet normal -0.608761429008691 0.793353340291258 -8.03256743313682e-010
  outer loop
    vertex 261.538384891181 49.03019124397 4.60000004378531
    vertex 261.704070315746 49.1573261440866 6.800000043755
    vertex 261.704070316131 49.1573261420484 4.600000043755
  endloop
endfacet
facet normal -0.608761429008691 0.793353340291258 -8.03256743313682e-010
  outer loop
    vertex 261.704070315746 49.1573261440866 6.800000043755
    vertex 261.538384891181 49.03019124397 4.60000004378531
    vertex 261.538384890796 49.0301912460083 6.80000004378531
  endloop
endfacet
facet normal -1.0 4.3816035893788e-011 -1.52226488732917e-010
  outer loop
    vertex 258.638384890817 47.8723022875154 7.00000004372775
    vertex 258.638384893084 91.2751394184093 4.60000000000025
    vertex 258.638384891182 47.8723022854473 4.60000004372775
  endloop
endfacet
facet normal -1.0 4.3816035893788e-011 -1.52226488732917e-010
  outer loop
    vertex 258.638384893084 91.2751394184093 4.60000000000025
    vertex 258.638384890817 47.8723022875154 7.00000004372775
    vertex 258.638384892718 91.2751394204773 7.00000000000025
  endloop
endfacet
facet normal 0.991444861373803 -0.130526192220109 2.62194197145923e-010
  outer loop
    vertex 260.365644232052 89.6314853690355 4.60000000021909
    vertex 260.338384892778 89.4244301350239 6.80000000021623
    vertex 260.338384893083 89.4244301329535 4.60000000021623
  endloop
endfacet
facet normal 0.991444861373803 -0.130526192220109 2.62194197145923e-010
  outer loop
    vertex 260.338384892778 89.4244301350239 6.80000000021623
    vertex 260.365644232052 89.6314853690355 4.60000000021909
    vertex 260.365644231747 89.6314853711059 6.80000000021909
  endloop
endfacet
facet normal 0.130526192220056 -0.99144486137381 9.01964321676014e-010
  outer loop
    vertex 261.138384890796 50.5230115690358 6.80000004361638
    vertex 260.931329655099 50.4957522280288 4.60000004363656
    vertex 261.138384891181 50.5230115669976 4.60000004361638
  endloop
endfacet
facet normal 0.130526192220056 -0.99144486137381 9.01964321676014e-010
  outer loop
    vertex 260.931329655099 50.4957522280288 4.60000004363656
    vertex 261.138384890796 50.5230115690358 6.80000004361638
    vertex 260.931329654714 50.4957522300671 6.80000004363656
  endloop
endfacet
facet normal -0.130526192237504 0.991444861371513 -8.97979835728974e-010
  outer loop
    vertex 261.138384892778 88.6244301350239 6.80000000026319
    vertex 261.345440129165 88.6516894719222 4.6000000002766
    vertex 261.138384893083 88.6244301329535 4.60000000026319
  endloop
endfacet
facet normal -0.130526192237504 0.991444861371513 -8.97979835728974e-010
  outer loop
    vertex 261.345440129165 88.6516894719222 4.6000000002766
    vertex 261.138384892778 88.6244301350239 6.80000000026319
    vertex 261.34544012886 88.6516894739926 6.8000000002766
  endloop
endfacet
facet normal -0.130526192237504 0.991444861371513 -8.97979835728974e-010
  outer loop
    vertex 261.34544012886 88.6516894739926 6.8000000002766
    vertex 261.138384892778 88.6244301350239 6.80000000026319
    vertex 261.224619867805 88.6357831848656 6.80000001194928
  endloop
endfacet
facet normal 0.130526192220109 0.991444861373803 -8.67726970834627e-010
  outer loop
    vertex 260.931329656696 88.6516894739926 6.80000000025008
    vertex 261.138384893083 88.6244301329535 4.60000000026319
    vertex 260.931329657001 88.6516894719222 4.60000000025008
  endloop
endfacet
facet normal 0.130526192220109 0.991444861373803 -8.67726970834627e-010
  outer loop
    vertex 261.138384893083 88.6244301329535 4.60000000026319
    vertex 260.931329656696 88.6516894739926 6.80000000025008
    vertex 261.138384892778 88.6244301350239 6.80000000026319
  endloop
endfacet
facet normal 0.608761429021035 -0.793353340281786 7.93256892047999e-010
  outer loop
    vertex 260.738384893083 90.117250455981 4.60000000024555
    vertex 260.572699467829 89.9901155599731 6.80000000023426
    vertex 260.572699468134 89.9901155579027 4.60000000023426
  endloop
endfacet
facet normal 0.608761429021035 -0.793353340281786 7.93256892047999e-010
  outer loop
    vertex 260.572699467829 89.9901155599731 6.80000000023426
    vertex 260.738384893083 90.117250455981 4.60000000024555
    vertex 260.738384892778 90.1172504580514 6.80000000024555
  endloop
endfacet
facet normal 0.608761429021035 -0.793353340281786 7.93256892047999e-010
  outer loop
    vertex 260.572699467829 89.9901155599731 6.80000000023426
    vertex 260.738384892778 90.1172504580514 6.80000000024555
    vertex 260.638384893411 90.0405177597398 6.80000000132104
  endloop
endfacet
facet normal -0.382683432365175 -0.923879532511251 7.70299040945072e-010
  outer loop
    vertex 261.538384893083 90.117250455981 4.60000000029678
    vertex 261.34544012886 90.1971707960552 6.80000000028485
    vertex 261.345440129165 90.1971707939848 4.60000000028485
  endloop
endfacet
facet normal -0.382683432365175 -0.923879532511251 7.70299040945072e-010
  outer loop
    vertex 261.34544012886 90.1971707960552 6.80000000028485
    vertex 261.538384893083 90.117250455981 4.60000000029678
    vertex 261.538384892778 90.1172504580514 6.80000000029678
  endloop
endfacet
endsolid new_body_18650
